<?xml version="1.0" encoding="UTF-8" standalone="no"?>
<!-- Created with Inkscape (http://www.inkscape.org/) -->

<svg
   width="142.17557mm"
   height="163.44322mm"
   viewBox="0 0 142.17557 163.44322"
   version="1.1"
   id="svg1"
   inkscape:version="1.3.2 (091e20ef0f, 2023-11-25, custom)"
   sodipodi:docname="regional.svg"
   xmlns:inkscape="http://www.inkscape.org/namespaces/inkscape"
   xmlns:sodipodi="http://sodipodi.sourceforge.net/DTD/sodipodi-0.dtd"
   xmlns="http://www.w3.org/2000/svg"
   xmlns:svg="http://www.w3.org/2000/svg">
  <sodipodi:namedview
     id="namedview1"
     pagecolor="#ffffff"
     bordercolor="#666666"
     borderopacity="1.0"
     inkscape:showpageshadow="2"
     inkscape:pageopacity="0.0"
     inkscape:pagecheckerboard="0"
     inkscape:deskcolor="#d1d1d1"
     inkscape:document-units="mm"
     showguides="true"
     inkscape:zoom="0.7622131"
     inkscape:cx="275.5135"
     inkscape:cy="203.3552"
     inkscape:window-width="2560"
     inkscape:window-height="1403"
     inkscape:window-x="1080"
     inkscape:window-y="351"
     inkscape:window-maximized="1"
     inkscape:current-layer="layer1">
    <sodipodi:guide
       position="39.899256,32.159091"
       orientation="0,-1"
       id="guide1"
       inkscape:locked="false" />
    <sodipodi:guide
       position="21.490162,198.33183"
       orientation="0,-1"
       id="guide7"
       inkscape:locked="false" />
    <sodipodi:guide
       position="67.990146,89.126391"
       orientation="0,-1"
       id="guide8"
       inkscape:locked="false" />
  </sodipodi:namedview>
  <defs
     id="defs1">
    <inkscape:path-effect
       effect="spiro"
       id="path-effect24"
       is_visible="true"
       lpeversion="1" />
    <inkscape:path-effect
       effect="spiro"
       id="path-effect23"
       is_visible="true"
       lpeversion="1" />
    <inkscape:path-effect
       effect="spiro"
       id="path-effect19"
       is_visible="true"
       lpeversion="1" />
    <inkscape:path-effect
       effect="spiro"
       id="path-effect18"
       is_visible="true"
       lpeversion="1" />
    <inkscape:path-effect
       effect="spiro"
       id="path-effect16"
       is_visible="true"
       lpeversion="1" />
    <inkscape:path-effect
       effect="spiro"
       id="path-effect15"
       is_visible="true"
       lpeversion="1" />
    <inkscape:path-effect
       effect="spiro"
       id="path-effect14"
       is_visible="true"
       lpeversion="1" />
    <inkscape:path-effect
       effect="spiro"
       id="path-effect13"
       is_visible="true"
       lpeversion="1" />
    <inkscape:path-effect
       effect="spiro"
       id="path-effect12"
       is_visible="true"
       lpeversion="1" />
    <inkscape:path-effect
       effect="spiro"
       id="path-effect11"
       is_visible="true"
       lpeversion="1" />
    <inkscape:path-effect
       effect="spiro"
       id="path-effect10"
       is_visible="true"
       lpeversion="1" />
    <inkscape:path-effect
       effect="spiro"
       id="path-effect9"
       is_visible="true"
       lpeversion="1" />
    <inkscape:path-effect
       effect="spiro"
       id="path-effect8"
       is_visible="true"
       lpeversion="1" />
    <inkscape:path-effect
       effect="spiro"
       id="path-effect7"
       is_visible="true"
       lpeversion="1" />
    <inkscape:path-effect
       effect="spiro"
       id="path-effect6"
       is_visible="true"
       lpeversion="1" />
    <inkscape:path-effect
       effect="spiro"
       id="path-effect5"
       is_visible="true"
       lpeversion="1" />
    <inkscape:path-effect
       effect="spiro"
       id="path-effect4"
       is_visible="true"
       lpeversion="1" />
    <inkscape:path-effect
       effect="spiro"
       id="path-effect3"
       is_visible="true"
       lpeversion="1" />
    <inkscape:path-effect
       effect="spiro"
       id="path-effect3-9"
       is_visible="true"
       lpeversion="1" />
    <inkscape:path-effect
       effect="spiro"
       id="path-effect3-2"
       is_visible="true"
       lpeversion="1" />
    <inkscape:path-effect
       effect="spiro"
       id="path-effect3-7"
       is_visible="true"
       lpeversion="1" />
    <inkscape:path-effect
       effect="spiro"
       id="path-effect3-3"
       is_visible="true"
       lpeversion="1" />
    <inkscape:path-effect
       effect="spiro"
       id="path-effect3-32"
       is_visible="true"
       lpeversion="1" />
    <inkscape:path-effect
       effect="spiro"
       id="path-effect3-5"
       is_visible="true"
       lpeversion="1" />
    <inkscape:path-effect
       effect="spiro"
       id="path-effect5-6"
       is_visible="true"
       lpeversion="1" />
    <inkscape:path-effect
       effect="spiro"
       id="path-effect4-5"
       is_visible="true"
       lpeversion="1" />
    <inkscape:path-effect
       effect="spiro"
       id="path-effect6-4"
       is_visible="true"
       lpeversion="1" />
    <inkscape:path-effect
       effect="spiro"
       id="path-effect7-8"
       is_visible="true"
       lpeversion="1" />
    <inkscape:path-effect
       effect="spiro"
       id="path-effect7-3"
       is_visible="true"
       lpeversion="1" />
    <inkscape:path-effect
       effect="spiro"
       id="path-effect7-3-6"
       is_visible="true"
       lpeversion="1" />
    <inkscape:path-effect
       effect="spiro"
       id="path-effect7-3-4"
       is_visible="true"
       lpeversion="1" />
    <inkscape:path-effect
       effect="spiro"
       id="path-effect7-8-2"
       is_visible="true"
       lpeversion="1" />
    <inkscape:path-effect
       effect="spiro"
       id="path-effect4-5-1"
       is_visible="true"
       lpeversion="1" />
    <inkscape:path-effect
       effect="spiro"
       id="path-effect8-9"
       is_visible="true"
       lpeversion="1" />
    <inkscape:path-effect
       effect="spiro"
       id="path-effect14-2"
       is_visible="true"
       lpeversion="1" />
    <inkscape:path-effect
       effect="spiro"
       id="path-effect14-2-0"
       is_visible="true"
       lpeversion="1" />
    <inkscape:path-effect
       effect="spiro"
       id="path-effect23-0"
       is_visible="true"
       lpeversion="1" />
  </defs>
  <g
     inkscape:label="Layer 1"
     inkscape:groupmode="layer"
     id="layer1"
     transform="translate(-32.755292,-52.27707)">
    <path
       style="fill:none;fill-rule:evenodd;stroke:#000000;stroke-width:7.9375;stroke-linecap:butt;stroke-linejoin:miter;stroke-dasharray:none;stroke-opacity:1"
       d="m 33.750282,51.994471 v 2.082752 0.347125 c 0,0.02896 -7.57e-4,0.05792 -0.002,0.08685 -0.0012,0.02894 -0.0025,0.05811 0.002,0.08671 0.01021,0.06454 0.04977,0.120037 0.08788,0.17312 0.03811,0.05308 0.07705,0.109233 0.08568,0.174005 0.0077,0.05748 -0.0095,0.116362 0,0.173564 0.0069,0.04134 0.0275,0.07956 0.05442,0.111682 0.02691,0.03212 0.05997,0.05857 0.09435,0.08253 0.06876,0.04793 0.145202,0.08811 0.198355,0.152914 0.04119,0.05022 0.06548,0.111854 0.0885,0.172592 0.02302,0.06074 0.04595,0.122678 0.08506,0.174533 0.04932,0.06538 0.115655,0.115656 0.173563,0.173564 l 0.173563,0.173562 c 0.05786,0.05786 0.114174,0.117281 0.173562,0.173564 0.269332,0.25525 0.617915,0.419945 0.867813,0.69425 0.195042,0.21409 0.32043,0.485029 0.520687,0.694249 0.08518,0.08899 0.182503,0.165294 0.275146,0.24649 0.09264,0.0812 0.181838,0.168761 0.245543,0.274199 0.124308,0.20574 0.139604,0.456284 0.173562,0.694251 0.08887,0.62276 0.329113,1.223373 0.694251,1.735624 0.257921,0.295589 0.438969,0.657686 0.520686,1.041376 0.06156,0.289044 0.0684,0.59163 0.173564,0.867812 0.03277,0.08605 0.07468,0.168322 0.109337,0.253628 0.03465,0.08531 0.06223,0.175005 0.06423,0.267059 0.0019,0.08815 -0.01963,0.174893 -0.03081,0.262349 -0.0056,0.04373 -0.0086,0.08799 -0.0048,0.13191 0.0038,0.04392 0.01468,0.08761 0.03557,0.126431 0.03906,0.0726 0.109083,0.122188 0.173564,0.173561 0.08006,0.06378 0.156887,0.136835 0.19842,0.230391 0.02077,0.04678 0.03211,0.0982 0.02904,0.149285 -0.0031,0.05109 -0.02106,0.101756 -0.05389,0.141013 -0.02651,0.0317 -0.06144,0.05495 -0.094,0.0804 -0.03255,0.02545 -0.0641,0.05484 -0.07957,0.09316 -0.01096,0.02717 -0.01308,0.05718 -0.01128,0.08643 0.0018,0.02924 0.0074,0.0581 0.01128,0.08714 0.03247,0.241551 -0.05294,0.487482 -0.188976,0.689706 -0.13604,0.202224 -0.319912,0.366988 -0.505275,0.525234 -0.78025,0.666108 -1.633125,1.267812 -2.256314,2.08275 -0.253498,0.331497 -0.464559,0.69296 -0.69425,1.041376 -0.143407,0.217534 -0.297763,0.438419 -0.347125,0.694251 -0.01292,0.06698 -0.0185,0.135875 -0.04146,0.200106 -0.01148,0.03212 -0.02738,0.06293 -0.04939,0.08898 -0.02201,0.02605 -0.05037,0.04721 -0.08272,0.05804 -0.02787,0.0093 -0.05788,0.0108 -0.08718,0.0084 -0.0293,-0.0024 -0.05813,-0.0086 -0.08697,-0.01429 -0.02884,-0.0057 -0.05794,-0.01089 -0.08733,-0.0113 -0.02939,-4.11e-4 -0.0593,0.0042 -0.08565,0.01721 -0.03685,0.01824 -0.06419,0.05084 -0.0906,0.08236 -0.02641,0.03151 -0.05388,0.06213 -0.08296,0.09121 l -0.520687,0.520686 c -0.05796,0.05796 -0.114004,0.1178 -0.168804,0.17876 -0.0548,0.06096 -0.110152,0.122847 -0.178321,0.168366 -0.09992,0.06672 -0.221233,0.09256 -0.340224,0.109224 -0.118991,0.01666 -0.240231,0.02578 -0.354027,0.06434 -0.122676,0.04157 -0.231325,0.115529 -0.347125,0.173561 -0.115792,0.05803 -0.240004,0.100762 -0.347125,0.173564 -0.116424,0.07912 -0.208294,0.191645 -0.272024,0.317158 -0.06373,0.125514 -0.100084,0.263786 -0.116947,0.403539 -0.03373,0.279505 0.0091,0.561742 0.04185,0.841366 0.03377,0.288528 0.0566,0.582881 0,0.867812 -0.01154,0.05807 -0.02637,0.11575 -0.03087,0.174787 -0.0045,0.05904 0.002,0.12062 0.03087,0.172339 0.02002,0.03591 0.04976,0.06539 0.08086,0.09228 0.0311,0.02689 0.06404,0.0518 0.0927,0.08128 0.091,0.09356 0.13108,0.223719 0.173563,0.347126 0.287231,0.834358 0.812624,1.577629 1.041376,2.429877 0.166135,0.618961 0.168363,1.26834 0.173562,1.909189 0.0062,0.767089 0.024,1.560568 0.347125,2.256311 0.10903,0.234763 0.251127,0.453863 0.347125,0.69425 0.06787,0.169941 0.111829,0.348427 0.173563,0.52069 0.228219,0.636825 0.686421,1.159744 1.041375,1.735624 0.232246,0.376797 0.423012,0.783228 0.520688,1.214938 0.128461,0.567775 0.09224,1.160855 0,1.735627 -0.0093,0.05776 -0.01912,0.115609 -0.02171,0.174053 -0.0026,0.05845 0.0023,0.117893 0.02171,0.173072 0.02766,0.07851 0.08338,0.144384 0.146302,0.198883 0.06292,0.0545 0.133586,0.09917 0.200823,0.148242 0.498298,0.363657 0.784226,0.946871 1.214938,1.388499 0.344024,0.352743 0.785106,0.620537 1.041376,1.041377 0.101236,0.166248 0.16927,0.350071 0.242903,0.530252 0.07363,0.180181 0.154852,0.36021 0.277784,0.511124 0.06703,0.08229 0.145515,0.154694 0.212443,0.237064 0.06693,0.08237 0.123204,0.178111 0.134682,0.283622 0.0063,0.05776 -0.0011,0.115993 -0.0063,0.173851 -0.0053,0.05786 -0.0083,0.117051 0.0063,0.173275 0.0211,0.08107 0.07734,0.148954 0.141589,0.202713 0.06425,0.05376 0.137279,0.09585 0.205537,0.144412 0.292236,0.207915 0.487691,0.528864 0.611853,0.865337 0.124162,0.336474 0.183998,0.692494 0.255959,1.043852 0.07068,0.345109 0.153876,0.689654 0.173564,1.041376 0.01617,0.288862 0,0.578498 0,0.867812 v 0.867812 c 0,0.231473 -0.01643,0.463362 0,0.694251 0.02096,0.294584 0.112484,0.578867 0.173561,0.867812 0.192065,0.90863 0.08162,1.852852 0.173564,2.777002 0.05847,0.58772 0.198506,1.16402 0.347125,1.73563 0.134308,0.51657 0.276327,1.03303 0.347123,1.56206 0.07715,0.57653 0.06903,1.16343 0.173564,1.73563 0.06334,0.34673 0.168069,0.68894 0.173562,1.04137 0.0036,0.23175 -0.03586,0.46527 0,0.69425 0.049,0.31288 0.233974,0.58739 0.43851,0.82918 0.204536,0.24179 0.434718,0.46451 0.602866,0.73288 0.195789,0.31249 0.299477,0.67571 0.347125,1.04138 0.05244,0.40246 0.03961,0.81101 0,1.21494 -0.0057,0.0578 -0.01184,0.11669 0,0.17356 0.0172,0.0827 0.07135,0.15367 0.135649,0.20838 0.0643,0.0547 0.139017,0.0954 0.211477,0.13874 0.443829,0.26533 0.8135,0.6355 1.188862,0.99115 0.375361,0.35565 0.769417,0.70595 1.241013,0.91804 0.136482,0.0614 0.279045,0.11096 0.406953,0.18865 0.06395,0.0388 0.124056,0.0847 0.174393,0.1401 0.05034,0.0554 0.09076,0.12047 0.112904,0.19194 0.02011,0.0649 0.02492,0.13386 0.04569,0.19858 0.01038,0.0323 0.02489,0.0637 0.04606,0.0903 0.02117,0.0266 0.04934,0.0482 0.08182,0.0582 0.02781,0.009 0.05754,0.008 0.08654,0.006 0.029,-0.002 0.05793,-0.007 0.08702,-0.006 0.06573,0.001 0.128771,0.0273 0.185127,0.0611 0.05636,0.0339 0.107516,0.0756 0.161998,0.11241 0.199375,0.13465 0.437769,0.19936 0.675034,0.2392 0.237265,0.0398 0.478313,0.0571 0.713465,0.10792 0.558973,0.12087 1.05782,0.42445 1.562066,0.69425 0.295347,0.15803 0.597106,0.30645 0.873208,0.49612 0.276102,0.18966 0.528481,0.42474 0.688855,0.71882 0.149307,0.27379 0.21282,0.58636 0.347125,0.86781 0.160581,0.33652 0.417399,0.61805 0.694248,0.86782 0.215133,0.19409 0.44516,0.37268 0.694251,0.52069 0.198629,0.11802 0.409163,0.21652 0.598982,0.34825 0.18982,0.13172 0.361766,0.30304 0.442394,0.51956 0.05108,0.13717 0.06315,0.2863 0.05593,0.4325 -0.0072,0.14619 -0.03312,0.29072 -0.05593,0.43531 -0.09384,0.59487 -0.135957,1.19743 -0.243636,1.78995 -0.10768,0.59253 -0.285607,1.18325 -0.624176,1.6813 -0.231096,0.33995 -0.530657,0.62765 -0.77903,0.95519 -0.124186,0.16377 -0.235927,0.33832 -0.315782,0.52771 -0.07986,0.18938 -0.12721,0.39444 -0.120128,0.59985 0.004,0.11605 0.02507,0.23376 0,0.34713 -0.02273,0.10279 -0.08189,0.19381 -0.147808,0.27589 -0.06592,0.0821 -0.13979,0.15797 -0.199315,0.2448 -0.103958,0.15164 -0.160113,0.3306 -0.204168,0.5091 -0.04405,0.1785 -0.07771,0.36038 -0.142957,0.53227 -0.119992,0.31611 -0.339997,0.58203 -0.52069,0.86781 -0.138501,0.21905 -0.254984,0.45202 -0.347125,0.69425 -0.10174,0.18235 -0.217932,0.35664 -0.347126,0.52069 -0.04083,0.0518 -0.08314,0.10293 -0.116284,0.15999 -0.03315,0.0571 -0.05702,0.12115 -0.05728,0.18714 -1.12e-4,0.0291 0.0043,0.058 0.0066,0.087 0.0023,0.029 0.0022,0.0588 -0.0066,0.0865 -0.01027,0.0323 -0.03214,0.0602 -0.05886,0.0811 -0.02671,0.0209 -0.05812,0.0351 -0.09044,0.0454 -0.06465,0.0205 -0.133477,0.0256 -0.197828,0.047 -0.07052,0.0235 -0.133745,0.0662 -0.186753,0.11827 -0.05301,0.0521 -0.09618,0.11349 -0.133307,0.17789 -0.07424,0.12878 -0.12503,0.27009 -0.200627,0.39809 -0.116013,0.19642 -0.286874,0.35519 -0.470493,0.49057 -0.183619,0.13537 -0.381634,0.24986 -0.570883,0.37724 -1.117411,0.75213 -1.891447,1.93343 -2.377743,3.18954 -0.486296,1.25611 -0.709253,2.59615 -0.919947,3.92653 -0.191984,1.21224 -0.37629,2.42598 -0.520687,3.64481 -0.01369,0.11554 -0.02688,0.23393 0,0.34713 0.03002,0.12643 0.107223,0.23539 0.173564,0.34712 0.159522,0.26866 0.261865,0.56722 0.347123,0.86782 0.14559,0.51331 0.244364,1.0385 0.347125,1.56206 0.146678,0.74732 0.302274,1.49605 0.347126,2.25631 0.02094,0.3549 0.01766,0.71137 0.05484,1.06493 0.03719,0.35357 0.117035,0.70851 0.292283,1.01783 0.182928,0.32287 0.459866,0.58011 0.694251,0.86781 0.263707,0.3237 0.473934,0.68671 0.694251,1.04137 0.262888,0.42319 0.542453,0.83766 0.867812,1.21494 0.189596,0.21985 0.397568,0.43134 0.520687,0.69425 0.101553,0.21686 0.139704,0.4572 0.173564,0.69425 0.114955,0.8048 0.193279,1.61715 0.173561,2.42988 -0.01771,0.73008 -0.114407,1.45641 -0.136242,2.18639 -0.02183,0.72997 0.03467,1.47618 0.309806,2.15267 0.224617,0.55227 0.585804,1.03678 0.867812,1.56206 0.315484,0.58764 0.533849,1.24235 0.520687,1.90919 -0.007,0.3528 -0.07831,0.70161 -0.173562,1.04138 -0.178317,0.6361 -0.442165,1.25326 -0.520686,1.90919 -0.0069,0.0577 -0.01231,0.11674 0,0.17356 0.01169,0.054 0.03922,0.10393 0.0757,0.14539 0.03649,0.0415 0.08173,0.0747 0.130411,0.10079 0.09737,0.0522 0.20701,0.0758 0.314574,0.10094 0.442058,0.10341 0.878885,0.24435 1.274521,0.46702 0.395636,0.22267 0.749983,0.53114 0.981793,0.92149 0.197363,0.33235 0.300672,0.71419 0.343943,1.0983 0.04327,0.3841 0.02856,0.77231 0.0032,1.15801 -0.0237,0.36019 -0.05663,0.72205 -0.02216,1.08136 0.03447,0.35932 0.141676,0.72123 0.369286,1.00139 0.06669,0.0821 0.142839,0.15618 0.208478,0.23912 0.06564,0.0829 0.121494,0.17721 0.138647,0.28157 0.0094,0.0573 0.0069,0.11592 0,0.17356 -0.02331,0.19504 -0.096,0.38165 -0.190882,0.55364 -0.09488,0.17199 -0.211851,0.33067 -0.329807,0.48774 -0.173711,0.23131 -0.350396,0.46041 -0.520687,0.69425 -0.170331,0.23389 -0.334471,0.4728 -0.520689,0.69425 -0.421474,0.50123 -0.948056,0.90386 -1.388499,1.3885 -0.389386,0.42846 -0.706941,0.9159 -1.041376,1.3885 -0.167124,0.23617 -0.338893,0.46918 -0.520687,0.69425 -0.04147,0.0513 -0.08366,0.10256 -0.116571,0.15977 -0.03291,0.0572 -0.05638,0.12135 -0.05699,0.18735 -6.1e-4,0.0662 0.02185,0.13101 0.05462,0.18853 0.03276,0.0575 0.0756,0.10857 0.118946,0.1586 0.697086,0.80452 1.586259,1.42914 2.256314,2.25631 0.233288,0.28799 0.438863,0.59922 0.694248,0.86781 0.169185,0.17793 0.359072,0.33586 0.520689,0.52069 0.359844,0.41153 0.56234,0.93514 0.867812,1.3885 0.32369,0.48039 0.762375,0.88085 1.041377,1.3885 0.06231,0.11339 0.116109,0.2312 0.173561,0.34713 0.05745,0.11592 0.118588,0.23001 0.173564,0.34712 0.07262,0.15468 0.135523,0.32166 0.121029,0.49193 -0.0072,0.0851 -0.03463,0.16949 -0.08529,0.23829 -0.05065,0.0688 -0.125479,0.12107 -0.209306,0.1376 -0.05077,0.01 -0.103158,0.007 -0.15468,0.002 -0.05152,-0.005 -0.103172,-0.0115 -0.154847,-0.009 -0.05167,0.003 -0.104194,0.0159 -0.145699,0.0468 -0.02075,0.0155 -0.03843,0.0353 -0.05024,0.0583 -0.01181,0.023 -0.0176,0.0493 -0.01522,0.0751 0.002,0.0214 0.0095,0.0421 0.0206,0.0604 0.0111,0.0184 0.02571,0.0345 0.04208,0.0484 0.03274,0.0278 0.07201,0.0465 0.110883,0.0647 1.900726,0.89112 3.993439,1.28775 6.07469,1.56206 0.586163,0.0773 1.179356,0.14684 1.735627,0.34713 0.172318,0.062 0.34129,0.13669 0.520687,0.17356 0.284333,0.0584 0.578163,0.0191 0.867812,0 1.449828,-0.0955 2.886287,0.32347 4.339066,0.34713 0.231388,0.004 0.462829,0 0.694248,0 h 0.867815 1.735624 c 0.983635,0 1.968111,-0.0482 2.950565,0 0.989433,0.0485 1.96727,0.22685 2.950564,0.34712 1.036071,0.12673 2.080449,0.1891 3.124126,0.17357 0.17357,-0.003 0.347252,-0.007 0.520687,0 0.115772,0.005 0.232238,0.0151 0.347125,0 0.181888,-0.0239 0.348778,-0.10952 0.520687,-0.17357 0.171473,-0.0639 0.350269,-0.10692 0.520689,-0.17356 0.171141,-0.0669 0.33754,-0.15855 0.520687,-0.17356 0.05769,-0.005 0.115699,-0.002 0.173564,0 0.115669,0.003 0.231412,8.8e-4 0.347125,0 3.76332,-0.0287 7.321814,1.54877 10.934441,2.60344 1.855569,0.54171 3.798727,0.97155 5.38044,2.08275 0.288878,0.20295 0.565288,0.42847 0.883368,0.58165 0.15904,0.0766 0.32817,0.1345 0.50309,0.15819 0.17493,0.0237 0.35599,0.0124 0.52273,-0.0456 0.12239,-0.0425 0.23476,-0.10905 0.34713,-0.17357 0.87794,-0.50411 1.81092,-0.91228 2.777,-1.21493 0.64632,-0.35125 1.35494,-0.58746 2.08275,-0.69425 0.27727,-0.0407 0.55811,-0.0629 0.82997,-0.13093 0.27186,-0.068 0.5392,-0.18647 0.73209,-0.38976 0.0754,-0.0795 0.13847,-0.17079 0.22093,-0.24289 0.0412,-0.0361 0.0874,-0.0671 0.13849,-0.0868 0.0511,-0.0197 0.10745,-0.0276 0.16127,-0.0174 0.0297,0.006 0.0583,0.0165 0.0883,0.0206 0.015,0.002 0.0303,0.002 0.0451,-7.9e-4 0.0148,-0.003 0.0291,-0.01 0.0402,-0.0198 0.0113,-0.0104 0.0189,-0.0245 0.0228,-0.0394 0.004,-0.0148 0.004,-0.0305 0.002,-0.0457 -0.004,-0.0305 -0.0158,-0.0592 -0.0253,-0.0885 -0.0274,-0.0846 -0.0321,-0.17601 -0.0166,-0.26356 0.0155,-0.0876 0.051,-0.17118 0.10071,-0.24488 0.0995,-0.1474 0.25385,-0.25243 0.42098,-0.31316 0.33425,-0.12145 0.70239,-0.073 1.05701,-0.0462 0.63756,0.0482 1.30126,0.0157 1.87817,-0.25997 0.28845,-0.13782 0.55048,-0.33631 0.74425,-0.59058 0.19377,-0.25427 0.31694,-0.56559 0.32815,-0.88508 0.004,-0.11566 -0.006,-0.23156 0,-0.34712 0.003,-0.0579 0.0104,-0.1165 0,-0.17357 -0.0117,-0.064 -0.0448,-0.12176 -0.0797,-0.17668 -0.0348,-0.0549 -0.0722,-0.10916 -0.0939,-0.17044 -0.0325,-0.0916 -0.0273,-0.19446 0.006,-0.28568 0.0335,-0.0912 0.0941,-0.17111 0.16735,-0.23501 0.10204,-0.089 0.22791,-0.1478 0.35839,-0.18408 0.13048,-0.0363 0.26601,-0.0509 0.40117,-0.0593 0.27034,-0.0167 0.54841,-0.01 0.8025,-0.10378 0.12149,-0.0448 0.23351,-0.11141 0.34713,-0.17356 0.53458,-0.29241 1.12686,-0.49428 1.73562,-0.52069 0.17342,-0.008 0.34711,-8.6e-4 0.52069,0 0.28931,0.001 0.5788,-0.0132 0.86781,0 0.54276,0.0249 1.0784,0.148 1.62165,0.15704 0.27163,0.005 0.54561,-0.02 0.80579,-0.0982 0.26017,-0.0782 0.50669,-0.21183 0.69669,-0.406 0.0573,-0.0585 0.10952,-0.12252 0.17356,-0.17356 0.1176,-0.0937 0.26792,-0.13775 0.41721,-0.15583 0.1493,-0.0181 0.30032,-0.0123 0.4506,-0.0177 0.7387,-0.0268 1.44518,-0.32587 2.06866,-0.72293 0.62349,-0.39707 1.17752,-0.89187 1.74972,-1.35982 0.38571,-0.31543 0.78236,-0.62053 1.21494,-0.86782 0.10618,-0.0607 0.2147,-0.11803 0.31389,-0.18959 0.0992,-0.0716 0.18967,-0.15873 0.24774,-0.26636 0.0581,-0.10763 0.0811,-0.23765 0.0448,-0.35443 -0.0182,-0.0584 -0.051,-0.1125 -0.096,-0.1538 -0.0451,-0.0413 -0.1026,-0.0694 -0.16325,-0.0772 -0.0575,-0.007 -0.11574,0.003 -0.17356,0 -0.0472,-0.003 -0.0956,-0.0156 -0.13149,-0.0464 -0.018,-0.0154 -0.0324,-0.0352 -0.0403,-0.0575 -0.008,-0.0223 -0.009,-0.0472 -0.002,-0.0697 0.005,-0.0158 0.0142,-0.0302 0.0258,-0.0421 0.0117,-0.0118 0.0258,-0.0211 0.0411,-0.0275 0.0306,-0.0129 0.0652,-0.0144 0.0979,-0.009 0.0654,0.0114 0.1224,0.0497 0.18231,0.0783 0.19009,0.0909 0.41393,0.0847 0.61886,0.0356 0.20493,-0.0491 0.39774,-0.13802 0.59608,-0.2092 0.93567,-0.33581 1.95955,-0.26875 2.95056,-0.34712 1.89207,-0.14963 3.70603,-0.84194 5.38044,-1.73563 0.22836,-0.12188 0.4552,-0.24787 0.69426,-0.34712 0.11988,-0.0498 0.24467,-0.0939 0.34712,-0.17357 0.0647,-0.0503 0.1182,-0.11317 0.17356,-0.17356 0.70756,-0.77181 1.7298,-1.1585 2.60344,-1.73563 0.44627,-0.2948 0.85787,-0.64317 1.21494,-1.04137 0.36654,-0.40877 0.67704,-0.87367 0.86781,-1.3885 0.1272,-0.34328 0.20046,-0.70595 0.34713,-1.04138 0.29859,-0.68285 0.87315,-1.19724 1.3885,-1.73562 0.2562,-0.26765 0.50261,-0.54799 0.69431,-0.86505 0.19171,-0.31705 0.32762,-0.67415 0.34706,-1.04414 0.0253,-0.48125 -0.14561,-0.95074 -0.34712,-1.3885 -0.13053,-0.28356 -0.27615,-0.56382 -0.34713,-0.86781 -0.087,-0.37278 -0.0562,-0.7697 0.0706,-1.1309 0.12679,-0.3612 0.34745,-0.68678 0.62363,-0.95186 0.3856,-0.3701 0.87801,-0.62647 1.21494,-1.04137 0.26337,-0.32432 0.41707,-0.72878 0.69425,-1.04138 0.0704,-0.0794 0.14836,-0.15232 0.21416,-0.23564 0.0658,-0.0833 0.11998,-0.17966 0.13297,-0.28504 0.007,-0.0575 0.002,-0.11567 0,-0.17357 -0.0127,-0.42904 0.1824,-0.85018 0.48417,-1.15543 0.30177,-0.30524 0.70246,-0.50076 1.11935,-0.60294 0.83377,-0.20438 1.70666,-0.0505 2.56198,0.0228 1.14643,0.0982 2.3311,0.0433 3.39757,-0.38867 0.53324,-0.21597 1.03135,-0.52585 1.44018,-0.93063 0.40883,-0.40478 0.7265,-0.90605 0.88981,-1.4577 0.15156,-0.51196 0.16986,-1.05843 0.34713,-1.56207 0.27821,-0.79043 0.91376,-1.39224 1.3885,-2.08275 0.46115,-0.67075 0.77763,-1.44734 0.86781,-2.25631 0.0385,-0.34565 0.036,-0.69545 0,-1.04138 -0.0968,-0.93069 -0.43441,-1.84537 -0.34712,-2.777 0.0661,-0.7053 0.37783,-1.37455 0.81851,-1.92918 0.44067,-0.55464 1.00608,-1.00047 1.61136,-1.36851 0.47278,-0.28748 0.97516,-0.53229 1.40505,-0.88065 0.21495,-0.17418 0.41091,-0.37431 0.56263,-0.60565 0.15173,-0.23135 0.25832,-0.49502 0.28864,-0.77001 0.0531,-0.48114 -0.12738,-0.9572 -0.34713,-1.3885 -0.30639,-0.60135 -0.69373,-1.15714 -1.04137,-1.73563 -0.67116,-1.11684 -1.20533,-2.33439 -2.08275,-3.29768 -0.79629,-0.87422 -1.82971,-1.48839 -2.78137,-2.1903 -0.47583,-0.35095 -0.93575,-0.72796 -1.33166,-1.1671 -0.39591,-0.43913 -0.72751,-0.94342 -0.92029,-1.50236 -0.0779,-0.22575 -0.1327,-0.45898 -0.17356,-0.69425 -0.03,-0.17268 -0.052,-0.35332 0,-0.52068 0.0323,-0.10396 0.0924,-0.19822 0.16762,-0.27694 0.0752,-0.0787 0.16528,-0.1423 0.26115,-0.19387 0.19176,-0.10315 0.40483,-0.15832 0.6126,-0.22344 0.16375,-0.0513 0.32621,-0.10966 0.47664,-0.19223 0.15043,-0.0826 0.28915,-0.19048 0.39118,-0.32846 0.10774,-0.1457 0.17152,-0.32134 0.19656,-0.50081 0.025,-0.17946 0.0124,-0.36285 -0.023,-0.54057 -0.1018,-0.51169 -0.38564,-0.96784 -0.69425,-1.3885 -0.3264,-0.4449 -0.6885,-0.86799 -0.94678,-1.35561 -0.12913,-0.2438 -0.23153,-0.50336 -0.28388,-0.77424 -0.0524,-0.27088 -0.0536,-0.55368 0.0157,-0.82071 0.0534,-0.20547 0.14703,-0.39779 0.22417,-0.59557 0.0771,-0.19777 0.1387,-0.40767 0.12296,-0.61937 -0.0137,-0.18386 -0.0851,-0.35893 -0.17357,-0.52069 -0.3169,-0.57958 -0.84708,-1.01008 -1.3885,-1.3885 -0.99192,-0.69329 -2.07665,-1.27295 -2.93633,-2.12471 -0.42984,-0.42588 -0.79985,-0.92006 -1.0323,-1.47872 -0.23246,-0.55866 -0.32202,-1.185 -0.19687,-1.77701 0.0647,-0.30624 0.1856,-0.5997 0.34712,-0.86781 0.16973,-0.28175 0.3832,-0.53487 0.55846,-0.81321 0.17525,-0.27835 0.31419,-0.59353 0.30936,-0.92242 -0.005,-0.369 -0.18852,-0.70815 -0.34713,-1.04137 -0.43681,-0.91765 -0.71976,-1.95395 -0.52069,-2.95057 0.0467,-0.23395 0.11927,-0.46194 0.17357,-0.69425 0.0543,-0.23248 0.0907,-0.47034 0.17356,-0.69425 0.15984,-0.43205 0.48013,-0.78203 0.79033,-1.1226 0.3102,-0.34057 0.62561,-0.69683 0.77173,-1.13371 0.10175,-0.30424 0.11507,-0.63143 0.0955,-0.95164 -0.0196,-0.3202 -0.0711,-0.63768 -0.0955,-0.95755 -0.0528,-0.6925 0.0217,-1.38858 0,-2.08275 -0.008,-0.26536 -0.0307,-0.53081 -0.0177,-0.79598 0.013,-0.26517 0.0634,-0.53342 0.19124,-0.76608 0.16905,-0.30758 0.45751,-0.5278 0.69393,-0.78719 0.11821,-0.1297 0.22533,-0.27223 0.29371,-0.43385 0.0684,-0.16161 0.096,-0.34427 0.0537,-0.51459 -0.0314,-0.12627 -0.0991,-0.2404 -0.17356,-0.34712 -0.30538,-0.43791 -0.73189,-0.77992 -1.04138,-1.21494 -0.30003,-0.42173 -0.48038,-0.91801 -0.60018,-1.421519 -0.11981,-0.503507 -0.18223,-1.018574 -0.26763,-1.529045 -0.13515,-0.807842 -0.32878,-1.611011 -0.34712,-2.429875 -0.0143,-0.639689 0.0788,-1.276402 0.17356,-1.909189 0.12292,-0.82042 0.25039,-1.645571 0.52069,-2.429877 0.25745,-0.747022 0.64634,-1.467627 0.69425,-2.256314 0.0175,-0.288789 0,-0.57849 0,-0.867812 v -2.256314 c 0,-0.04645 8.2e-4,-0.09312 0.009,-0.138891 0.008,-0.04577 0.0228,-0.09021 0.0425,-0.132255 0.0198,-0.04204 0.0442,-0.08169 0.0671,-0.122085 0.0229,-0.0404 0.0445,-0.08224 0.0551,-0.127456 0.0133,-0.05645 0.009,-0.115369 0.006,-0.173258 -0.004,-0.05789 -0.006,-0.115864 -0.006,-0.173867 v -0.347125 c 0,-0.11575 0.01,-0.231811 0,-0.347126 -0.016,-0.18342 -0.0982,-0.353546 -0.17776,-0.519576 -0.0796,-0.16603 -0.15922,-0.337967 -0.16937,-0.5218 -0.005,-0.087 0.006,-0.17397 0.0129,-0.260843 0.007,-0.08687 0.009,-0.175497 -0.0129,-0.259844 -0.0325,-0.125603 -0.11531,-0.231185 -0.17356,-0.347125 -0.10751,-0.213991 -0.12962,-0.458838 -0.17356,-0.694251 -0.11091,-0.594189 -0.36851,-1.150644 -0.52069,-1.735624 -0.12023,-0.462167 -0.17496,-0.943063 -0.34712,-1.388502 -0.12196,-0.315573 -0.301,-0.607963 -0.40577,-0.929654 -0.0524,-0.160846 -0.0858,-0.329304 -0.0814,-0.498409 0.004,-0.169104 0.048,-0.339234 0.14006,-0.481125 0.13401,-0.206452 0.35685,-0.337015 0.52069,-0.520687 0.0549,-0.06156 0.10301,-0.128899 0.15723,-0.191066 0.0542,-0.06217 0.11574,-0.119918 0.18989,-0.156059 0.10878,-0.05302 0.23418,-0.05515 0.35485,-0.06429 0.0603,-0.0046 0.12083,-0.0112 0.17916,-0.02731 0.0583,-0.01611 0.1147,-0.04212 0.16024,-0.08197 0.0399,-0.03489 0.0704,-0.07939 0.0952,-0.126226 0.0248,-0.04683 0.0442,-0.09627 0.0649,-0.145035 0.0207,-0.04877 0.043,-0.09723 0.0728,-0.141046 0.0298,-0.04381 0.0677,-0.08308 0.11424,-0.10838 0.0588,-0.03194 0.12712,-0.03981 0.19138,-0.05832 0.0321,-0.0093 0.0638,-0.02142 0.0915,-0.04008 0.0278,-0.01865 0.0516,-0.04421 0.0642,-0.07516 0.0112,-0.02735 0.0132,-0.05772 0.0106,-0.08715 -0.003,-0.02943 -0.01,-0.05825 -0.0163,-0.08706 -0.007,-0.0288 -0.0127,-0.05792 -0.0134,-0.08746 -6.7e-4,-0.02954 0.004,-0.0598 0.0191,-0.08545 0.0103,-0.01803 0.025,-0.03324 0.041,-0.04646 0.016,-0.01321 0.0335,-0.02457 0.0506,-0.03634 0.0171,-0.01177 0.034,-0.02405 0.0486,-0.03881 0.0146,-0.01477 0.0269,-0.03221 0.0334,-0.05195 0.009,-0.02763 0.006,-0.05754 0.004,-0.0865 -0.002,-0.02896 -0.004,-0.058 -0.004,-0.08706 v -0.52069 c 0,-0.116007 0.004,-0.231956 0.0118,-0.347735 0.007,-0.115779 0.0149,-0.23362 -0.0118,-0.346513 -0.0299,-0.126569 -0.10238,-0.238276 -0.17356,-0.347126 -0.0712,-0.108849 -0.14363,-0.220556 -0.17357,-0.347125 -0.0267,-0.112893 -0.019,-0.230734 -0.0118,-0.346514 0.007,-0.115779 0.0118,-0.231728 0.0118,-0.347736 v -0.347126 -0.347125 c 0,-0.02903 0.001,-0.05805 0.004,-0.087 0.002,-0.02895 0.004,-0.05864 -0.004,-0.08656 -0.006,-0.02 -0.0167,-0.03823 -0.0301,-0.05408 -0.0135,-0.01585 -0.0294,-0.02943 -0.046,-0.04199 -0.0332,-0.02511 -0.0695,-0.0467 -0.0975,-0.07749 -0.0304,-0.03349 -0.0493,-0.07647 -0.0579,-0.120875 -0.009,-0.0444 -0.007,-0.09027 -0.001,-0.135064 0.0125,-0.08959 0.0449,-0.175387 0.059,-0.264747 0.0274,-0.174088 -0.0157,-0.350347 -0.044,-0.524296 -0.0142,-0.08697 -0.0246,-0.175032 -0.0207,-0.26306 0.004,-0.08803 0.0229,-0.176449 0.0647,-0.25402 0.0668,-0.124021 0.187,-0.212351 0.25558,-0.335413 0.0343,-0.06153 0.0549,-0.133166 0.0438,-0.202724 -0.006,-0.03478 -0.0191,-0.06848 -0.0407,-0.0963 -0.0216,-0.02781 -0.0514,-0.04953 -0.0851,-0.05981 -0.0278,-0.0085 -0.0575,-0.0091 -0.0865,-0.0073 -0.0291,0.0019 -0.0579,0.0062 -0.087,0.0073 -0.0751,0.0028 -0.1502,-0.016 -0.21804,-0.04838 -0.0678,-0.03238 -0.12877,-0.07802 -0.18351,-0.129557 -0.10946,-0.103081 -0.19431,-0.229056 -0.2927,-0.34275 -0.31709,-0.3664 -0.76228,-0.592973 -1.19925,-0.802375 -0.43697,-0.209402 -0.88755,-0.417501 -1.23063,-0.759688 -0.20524,-0.204704 -0.36429,-0.450188 -0.52068,-0.694251 -0.31016,-0.484028 -0.62408,-0.991487 -0.69425,-1.562063 -0.0283,-0.230049 -0.0156,-0.462997 0,-0.69425 0.0315,-0.465787 0.0753,-0.932114 0.17356,-1.388499 0.0502,-0.233209 0.11456,-0.463104 0.17356,-0.694251 0.059,-0.231131 0.11268,-0.463609 0.17356,-0.694251 0.0799,-0.302632 0.17435,-0.606825 0.34713,-0.867812 0.0361,-0.05454 0.0755,-0.106994 0.10822,-0.16365 0.0327,-0.05666 0.0588,-0.118391 0.0653,-0.183476 0.006,-0.05761 -0.004,-0.115794 0,-0.173564 0.004,-0.06737 0.0275,-0.13302 0.0635,-0.190162 0.036,-0.05714 0.0846,-0.105886 0.13985,-0.144672 0.11053,-0.07757 0.24515,-0.114475 0.37934,-0.129567 0.26838,-0.03018 0.54695,0.02075 0.8058,-0.05628 0.14227,-0.04234 0.27092,-0.121556 0.38972,-0.210564 0.11879,-0.08901 0.22943,-0.188483 0.34788,-0.277944 0.11845,-0.08946 0.24641,-0.169614 0.38818,-0.213579 0.14178,-0.04397 0.29929,-0.04934 0.43628,0.0078 0.0607,0.02533 0.1174,0.06266 0.1821,0.07448 0.0324,0.0059 0.0665,0.005 0.0971,-0.0071 0.0153,-0.0061 0.0295,-0.01489 0.0414,-0.02632 0.0118,-0.01143 0.0212,-0.0255 0.0266,-0.04103 0.01,-0.02747 0.007,-0.0575 0.004,-0.08646 -0.003,-0.02896 -0.004,-0.05802 -0.004,-0.0871 v -0.694251 -0.347126 c 0,-0.02897 8.8e-4,-0.05794 0.002,-0.08687 0.001,-0.02894 0.003,-0.05819 -0.002,-0.08669 -0.009,-0.0498 -0.0396,-0.09433 -0.0795,-0.125484 -0.0399,-0.03115 -0.0887,-0.04959 -0.13858,-0.05841 -0.0997,-0.01763 -0.20166,0.0018 -0.30257,0.01033 -0.31733,0.02667 -0.63624,-0.0571 -0.92493,-0.191508 -0.28869,-0.134408 -0.5512,-0.318172 -0.8107,-0.502743 -0.51021,-0.36289 -1.01679,-0.73366 -1.56206,-1.041373 -0.47671,-0.269026 -0.98865,-0.493977 -1.3885,-0.867815 -0.3901,-0.36473 -0.65056,-0.850966 -1.04137,-1.214938 -0.12042,-0.112146 -0.25207,-0.211558 -0.37522,-0.320686 -0.12316,-0.109127 -0.2391,-0.229733 -0.31903,-0.373564 -0.0629,-0.113178 -0.10248,-0.238905 -0.17357,-0.347126 -0.0542,-0.08246 -0.12575,-0.153339 -0.17179,-0.240588 -0.023,-0.04362 -0.0394,-0.09146 -0.0418,-0.140732 -0.002,-0.04927 0.0101,-0.100105 0.04,-0.139367 0.0198,-0.02609 0.0466,-0.04632 0.0755,-0.06179 0.0289,-0.01546 0.06,-0.02636 0.0913,-0.03616 0.0626,-0.01958 0.12823,-0.03583 0.18033,-0.07562 0.0522,-0.03986 0.0855,-0.09969 0.10927,-0.16093 0.0237,-0.06124 0.0393,-0.125452 0.0643,-0.186195 0.0356,-0.08664 0.0896,-0.164465 0.13002,-0.248971 0.0202,-0.04225 0.0371,-0.08639 0.0459,-0.132389 0.009,-0.04599 0.009,-0.09401 -0.002,-0.139329 -0.008,-0.02985 -0.0209,-0.05837 -0.0255,-0.08889 -0.002,-0.01526 -0.002,-0.03101 0.002,-0.04594 0.004,-0.01493 0.0119,-0.02902 0.0239,-0.03874 0.0116,-0.0094 0.0263,-0.01431 0.0411,-0.01582 0.0148,-0.0015 0.0298,2.24e-4 0.0444,0.003 0.0292,0.0056 0.0584,0.01559 0.0881,0.01279 0.0211,-0.002 0.0413,-0.01051 0.0587,-0.0226 0.0174,-0.01209 0.0322,-0.02768 0.0451,-0.04451 0.0258,-0.03367 0.0443,-0.07242 0.0697,-0.106451 0.0496,-0.06656 0.122,-0.111391 0.18898,-0.160382 0.0335,-0.0245 0.0661,-0.05051 0.0941,-0.08113 0.028,-0.03062 0.0514,-0.06611 0.064,-0.105613 0.0143,-0.04474 0.0145,-0.09325 0.005,-0.139351 -0.009,-0.0461 -0.0271,-0.09003 -0.0484,-0.131888 -0.0427,-0.08372 -0.0991,-0.160888 -0.13055,-0.249449 -0.0486,-0.137071 -0.0349,-0.287429 -0.0216,-0.432258 0.0133,-0.144828 0.0216,-0.290112 0.0216,-0.435554 v -0.347126 c 0,-0.173604 -0.0123,-0.347519 0,-0.520687 0.0147,-0.20724 0.076,-0.408361 0.10277,-0.614391 0.0134,-0.103015 0.0181,-0.207785 0.004,-0.310689 -0.0142,-0.102903 -0.0479,-0.204167 -0.10663,-0.289859 -0.0635,-0.0927 -0.15441,-0.164435 -0.25386,-0.216763 -0.0994,-0.05233 -0.2076,-0.08617 -0.31666,-0.113244 -0.21814,-0.05416 -0.44668,-0.08385 -0.64442,-0.19068 -0.15057,-0.08135 -0.27462,-0.202963 -0.40881,-0.309177 -0.1342,-0.106214 -0.2882,-0.200705 -0.459,-0.211511 -0.0577,-0.0037 -0.1157,0 -0.17356,0 h -0.17357 c -0.1736,0 -0.34748,0.01175 -0.52068,0 -0.29464,-0.01999 -0.57579,-0.12961 -0.86782,-0.173562 -0.25772,-0.03879 -0.52005,-0.02755 -0.78046,-0.01702 -0.26041,0.01053 -0.52098,0.01702 -0.7816,0.01702 h -1.3885 -5.554 -1.56207 c -0.28943,0 -0.58002,0.03074 -0.86781,0 -0.29362,-0.03136 -0.57371,-0.14704 -0.86781,-0.173563 -0.23057,-0.02079 -0.46274,0 -0.69425,0 h -0.69425 -2.60344 -2.42988 -0.69425 c -0.28934,0 -0.57923,-0.02101 -0.86781,0 -0.35119,0.02557 -0.69155,0.133431 -1.04138,0.173563 -0.34524,0.03961 -0.6941,0.01273 -1.04137,0 -0.98576,-0.03613 -1.97291,0.04233 -2.95056,0.173562 -0.51948,0.06973 -1.03828,0.154478 -1.56207,0.173563 -0.40473,0.01475 -0.80993,0 -1.21493,0 h -2.25632 c -0.63658,0 -1.27455,-0.04968 -1.90919,0 -0.64529,0.05051 -1.27142,0.236675 -1.90919,0.347125 -1.42791,0.247289 -2.89119,0.112389 -4.33906,0.173562 -1.80085,0.07609 -3.57915,0.456005 -5.38044,0.520688 -0.98295,0.0353 -1.966981,0 -2.950563,0 h -2.950564 -7.289628 c -2.083799,0 -4.165182,-0.11844 -6.248252,-0.173563 -0.462753,-0.01225 -0.925916,-0.01747 -1.388501,0 -0.347252,0.01311 -0.696067,0.03895 -1.041377,0 -0.349873,-0.03946 -0.690452,-0.144917 -1.041376,-0.173562 -0.346084,-0.02825 -0.694138,0 -1.041373,0 h -2.603439 -7.463192 c -0.983531,0 -1.967134,0.01423 -2.950562,0 -1.855172,-0.02685 -3.705418,-0.188654 -5.554004,-0.347125 -3.639438,-0.311993 -7.282589,-0.611594 -10.93444,-0.69425 -2.83504,-0.06417 -5.674267,0.0024 -8.504566,-0.173563 -0.695365,-0.04324 -1.389821,-0.101112 -2.082752,-0.173562 z"
       id="path18"
       inkscape:path-effect="#path-effect18"
       inkscape:original-d="m 33.750282,51.994471 c 0,0.69425 0,1.388501 0,2.082752 0,0.115707 0,0.231415 0,0.347125 0,0.05785 -0.0183,0.118672 0,0.173562 0.04091,0.122727 0.132653,0.224398 0.173563,0.347125 0.0183,0.05489 -0.02587,0.121814 0,0.173564 0.008,0.016 0.331485,0.323653 0.347125,0.347123 0.07176,0.10764 0.101802,0.239487 0.173562,0.347125 0.04538,0.06808 0.115713,0.115714 0.173563,0.173564 0.05785,0.05785 0.115713,0.115712 0.173563,0.173562 0.05785,0.05785 0.110712,0.121184 0.173562,0.173564 0.284586,0.237154 0.605867,0.432302 0.867813,0.69425 0.204546,0.204544 0.332433,0.474618 0.520687,0.694249 0.15974,0.186364 0.39891,0.307575 0.520689,0.520689 0.118349,0.207108 0.09333,0.469606 0.173562,0.694251 0.209574,0.586806 0.462833,1.157083 0.694251,1.735624 0.173561,0.347125 0.388059,0.676643 0.520686,1.041376 0.100814,0.277239 0.102014,0.581621 0.173564,0.867812 0.04437,0.177488 0.143492,0.340225 0.173562,0.520687 0.02853,0.171201 -0.04209,0.352309 0,0.52069 0.01984,0.07937 0.128174,0.105481 0.173564,0.173561 0.03439,0.05159 0.247371,0.37307 0.173561,0.520689 -0.03659,0.07318 -0.136971,0.100382 -0.173561,0.173562 -0.02588,0.05175 0.01402,0.117431 0,0.173561 -0.13239,0.529553 -0.273532,0.794218 -0.694251,1.21494 -1.628659,1.628656 -0.535162,0.04866 -2.256314,2.08275 -0.269482,0.318479 -0.479607,0.683636 -0.69425,1.041376 -0.133117,0.221861 -0.231417,0.462833 -0.347125,0.694251 -0.05785,0.115708 -0.06592,0.275365 -0.173563,0.347125 -0.09627,0.06418 -0.237354,-0.03659 -0.347125,0 -0.07762,0.02587 -0.115703,0.115712 -0.173563,0.173562 -0.173562,0.173561 -0.347125,0.347125 -0.520687,0.520686 -0.115709,0.115711 -0.200765,0.273946 -0.347125,0.347126 -0.213356,0.106674 -0.467953,0.09813 -0.694251,0.173564 -0.122727,0.04091 -0.231417,0.115711 -0.347125,0.173561 -0.115708,0.05785 -0.299075,0.05345 -0.347125,0.173564 -0.198096,0.495239 -0.271695,1.034034 -0.347125,1.562063 -0.04091,0.286364 0,0.578541 0,0.867812 0,0.115708 -0.03659,0.237355 0,0.347126 0.02587,0.07762 0.128182,0.105481 0.173562,0.173561 0.07176,0.107641 0.115713,0.231418 0.173563,0.347126 0.372201,0.744402 0.861753,1.67546 1.041376,2.429877 0.148012,0.621641 0.102992,1.274075 0.173562,1.909189 0.01277,0.114927 0.287435,2.05736 0.347125,2.256311 0.07435,0.247822 0.245206,0.456438 0.347125,0.69425 0.07207,0.168159 0.08279,0.361842 0.173563,0.52069 1.313284,2.298245 -0.359645,-1.299919 1.041375,1.735624 0.184639,0.40005 0.444118,0.78104 0.520688,1.214938 0.100542,0.56974 0,1.157083 0,1.735627 0,0.115707 -0.05175,0.243631 0,0.347125 0.07318,0.14636 0.237658,0.225494 0.347125,0.347125 0.411413,0.457124 0.796462,0.937832 1.214938,1.388499 0.334039,0.359736 0.746831,0.64865 1.041376,1.041377 0.232857,0.310477 0.332211,0.702116 0.520687,1.041376 0.101303,0.182345 0.269655,0.327009 0.347125,0.520686 0.04297,0.107432 -0.05175,0.243634 0,0.347126 0.07318,0.146359 0.252016,0.213968 0.347126,0.347125 0.475313,0.665438 0.667416,1.107604 0.867812,1.909189 0.08535,0.341405 0.141704,0.690906 0.173564,1.041376 0.02619,0.288081 0,0.57854 0,0.867812 0,0.289272 0,0.57854 0,0.867812 0,0.231418 -0.02556,0.464249 0,0.694251 0.03258,0.293195 0.150941,0.573683 0.173561,0.867812 0.199524,2.593622 -0.258469,0.184811 0.173564,2.777002 0.09699,0.58197 0.225579,1.15828 0.347125,1.73563 0.109882,0.52194 0.263933,1.0352 0.347123,1.56206 0.09068,0.57431 0.101444,1.15869 0.173564,1.73563 0.04365,0.34919 0.138542,0.6912 0.173562,1.04137 0.02302,0.23027 -0.05613,0.46974 0,0.69425 0.200384,0.80154 0.632801,0.81301 1.041376,1.56206 0.175212,0.32123 0.291485,0.67973 0.347125,1.04138 0.06158,0.40027 0,0.80996 0,1.21494 0,0.0579 -0.03209,0.12546 0,0.17356 0.09077,0.13615 0.220126,0.24394 0.347126,0.34712 0.799446,0.64956 1.616792,1.27679 2.429875,1.90919 0.228338,0.1776 0.489706,0.31614 0.69425,0.52069 0.09147,0.0915 0.08208,0.25563 0.173562,0.34713 0.04091,0.0409 0.118684,-0.0183 0.173564,0 0.122727,0.0409 0.223216,0.13636 0.347125,0.17356 0.456957,0.13709 0.93862,0.18834 1.388499,0.34712 0.537316,0.18964 1.075867,0.39713 1.562066,0.69425 0.562856,0.34397 1.116327,0.72868 1.562063,1.21494 0.210523,0.22966 0.224395,0.58145 0.347125,0.86781 0.188129,0.43898 0.262718,0.49793 0.694248,0.86782 0.219631,0.18825 0.44895,0.36737 0.694251,0.52069 0.462656,0.28916 0.88787,0.25379 1.041376,0.86781 0.07016,0.28063 0.02061,0.57927 0,0.86781 -0.106685,1.4936 -0.177628,2.02814 -0.867812,3.47125 -0.346776,0.72508 -0.855498,1.36387 -1.21494,2.08275 -0.05174,0.10349 0.04297,0.23969 0,0.34713 -0.07747,0.19367 -0.262403,0.33007 -0.347123,0.52069 -0.148608,0.33436 -0.195715,0.70827 -0.347125,1.04137 -0.139595,0.30711 -0.35686,0.57292 -0.52069,0.86781 -0.12565,0.22618 -0.231415,0.46284 -0.347125,0.69425 -0.115708,0.17357 -0.239803,0.34182 -0.347126,0.52069 -0.06656,0.11093 -0.132651,0.2244 -0.173561,0.34713 -0.01831,0.0549 0.04091,0.13266 0,0.17356 -0.09147,0.0915 -0.255645,0.0821 -0.347125,0.17356 -0.204544,0.20455 -0.316143,0.48971 -0.520687,0.69425 -0.319511,0.31951 -0.794099,0.48962 -1.041376,0.86781 -0.891421,1.36335 -2.850023,5.4475 -3.29769,7.11607 -0.318021,1.18535 -0.361953,2.42785 -0.520687,3.64481 -0.01497,0.11474 -0.02806,0.23488 0,0.34713 0.03138,0.1255 0.122604,0.22822 0.173564,0.34712 0.122727,0.28637 0.261533,0.56825 0.347123,0.86782 0.146534,0.51287 0.251715,1.03727 0.347125,1.56206 0.136126,0.74868 0.234246,1.50378 0.347126,2.25631 0.0044,0.0294 0.245398,1.8793 0.347125,2.08276 0.165669,0.33133 0.476364,0.56822 0.694251,0.86781 0.24538,0.3374 0.456779,0.69836 0.694251,1.04137 0.283284,0.40919 0.57509,0.81245 0.867812,1.21494 0.17014,0.23395 0.391321,0.43552 0.520687,0.69425 0.106684,0.21336 0.121814,0.46139 0.173564,0.69425 0.30667,1.38002 0.118861,0.56994 0.173561,2.42988 0.04256,1.44688 -0.07799,2.91358 0.173564,4.33906 0.103513,0.58658 0.587507,1.0365 0.867812,1.56206 0.525487,0.98531 0.613527,0.88793 0.520687,1.90919 -0.03186,0.35047 -0.08821,0.69997 -0.173562,1.04138 -0.508486,2.0339 -0.22049,0.10801 -0.520686,1.90919 -0.0095,0.0571 -0.04091,0.13266 0,0.17356 0.1475,0.1475 0.343797,0.23657 0.520686,0.34712 0.748872,0.46805 1.588961,0.81013 2.256314,1.38851 0.540007,0.468 0.315946,1.78858 0.347126,2.25631 0.01961,0.29422 0.234431,1.68832 0.347125,2.08275 0.279375,0.97781 0.03831,-0.0969 0.347125,0.52069 0.02588,0.0517 0.02278,0.12036 0,0.17356 -0.152881,0.35672 -0.321013,0.70859 -0.520689,1.04138 -0.148828,0.24804 -0.347125,0.46283 -0.520687,0.69425 -0.173564,0.23141 -0.32522,0.48101 -0.520689,0.69425 -0.442291,0.4825 -0.95748,0.8959 -1.388499,1.3885 -0.380974,0.4354 -0.694251,0.92566 -1.041376,1.3885 -0.173562,0.23141 -0.360228,0.45356 -0.520687,0.69425 -0.07176,0.10764 -0.173564,0.21776 -0.173564,0.34712 0,0.12937 0.09275,0.24611 0.173564,0.34713 2.237874,2.79735 0.209518,0.20952 2.256314,2.25631 0.261945,0.26195 0.450307,0.58902 0.694248,0.86781 0.161634,0.18473 0.378021,0.32096 0.520689,0.52069 1.058103,1.4813 -0.458375,-0.10346 0.867812,1.3885 1.334149,1.50092 0.587751,0.25444 1.041377,1.3885 0.04805,0.12012 0.115711,0.23142 0.173561,0.34713 0.05785,0.11571 0.152294,0.21952 0.173564,0.34712 0.04603,0.27619 0.147362,0.70735 -0.173564,0.86782 -0.163637,0.0819 -0.391321,0.0442 -0.520687,0.17356 -0.05785,0.0579 0.09719,0.14416 0.173562,0.17356 2.294053,0.88233 3.378303,0.9901 6.07469,1.56206 0.577157,0.12243 1.160735,0.21446 1.735627,0.34713 0.178266,0.0411 0.339148,0.15086 0.520687,0.17356 0.287038,0.0359 0.579104,-0.018 0.867812,0 1.448152,0.0905 2.88527,0.32703 4.339066,0.34713 0.23106,0.0128 0.462833,0 0.694248,0 0.289272,0 0.578543,0 0.867815,0 0.57854,0 1.157084,0 1.735624,0 0.983522,0 1.968741,-0.0578 2.950565,0 0.988594,0.0581 1.967042,0.23141 2.950564,0.34712 1.041374,0.0579 2.08275,0.11567 3.124126,0.17357 0.173366,0.008 0.347125,0 0.520687,0 0.115707,0 0.233664,0.0227 0.347125,0 0.179398,-0.0359 0.347126,-0.11567 0.520687,-0.17357 0.173564,-0.0579 0.347125,-0.11566 0.520689,-0.17356 0.173562,-0.0579 0.343199,-0.12916 0.520687,-0.17356 0.05613,-0.014 0.115704,0 0.173564,0 0.115708,0 0.232241,-0.0138 0.347125,0 5.284923,0.63419 4.692124,0.49336 10.934441,2.60344 1.821889,0.61585 3.583268,1.39811 5.38044,2.08275 0.632808,0.24107 1.249368,0.54198 1.909188,0.69425 0.12605,0.0291 0.226,-0.12817 0.34713,-0.17357 2.20668,-0.8275 -0.26113,0.30413 2.777,-1.21493 0.67732,-0.27709 1.3885,-0.46284 2.08275,-0.69425 0.52068,-0.17356 1.05543,-0.3096 1.56206,-0.52069 0.19255,-0.0802 0.33411,-0.25383 0.52069,-0.34713 0.0517,-0.0259 0.13266,0.0409 0.17356,0 0.0409,-0.0409 -0.0481,-0.14146 0,-0.17356 0.49561,-0.3304 1.03497,-0.59039 1.56206,-0.86781 0.93686,-0.49308 2.16636,-0.95143 2.95057,-1.73563 0.0818,-0.0818 0,-0.23141 0,-0.34712 0,-0.0579 0.0183,-0.11867 0,-0.17357 -0.0409,-0.12272 -0.14216,-0.22162 -0.17356,-0.34712 -0.0482,-0.19295 -0.0477,-0.43219 0.17356,-0.52069 0.36175,-0.1447 1.22547,-0.25092 1.56206,-0.34712 0.12439,-0.0355 0.226,-0.12816 0.34713,-0.17356 0.29732,-0.1115 1.31899,-0.46119 1.73562,-0.52069 0.17182,-0.0246 0.34713,0 0.52069,0 0.28927,0 0.57894,0.0152 0.86781,0 0.34491,-0.0182 2.32447,-0.0273 3.12413,-0.34713 0.076,-0.0304 0.096,-0.14766 0.17356,-0.17356 0.27986,-0.0933 0.59,-0.0744 0.86781,-0.17356 1.45375,-0.5192 2.49539,-1.22281 3.81838,-2.08275 0.41728,-0.27123 0.89979,-0.48263 1.21494,-0.86782 0.2317,-0.28319 0.28702,-0.68045 0.34712,-1.04137 0.01,-0.0571 -0.12186,0.0259 -0.17356,0 -0.0732,-0.0366 -0.23146,-0.11567 -0.17356,-0.17357 0.0818,-0.0818 0.23258,0.0163 0.34712,0 1.37379,-0.19626 0.41886,-0.17356 1.21494,-0.17356 1.09603,0 1.19025,0.0153 2.95056,-0.34712 2.60396,-0.53611 3.18878,-0.77678 5.38044,-1.73563 0.23704,-0.1037 0.46284,-0.23142 0.69426,-0.34712 0.1157,-0.0579 0.23948,-0.10177 0.34712,-0.17357 0.0681,-0.0454 0.10546,-0.12816 0.17356,-0.17356 1.84094,-1.22729 -0.17801,0.39137 2.60344,-1.73563 0.4237,-0.324 0.83778,-0.66421 1.21494,-1.04137 0.34814,-0.34814 0.6845,-0.93022 0.86781,-1.3885 0.1359,-0.33973 0.1532,-0.73109 0.34713,-1.04138 0.39267,-0.62827 0.94396,-1.14291 1.3885,-1.73562 0.43471,-0.57961 0.86219,-1.19245 1.04137,-1.90919 0.12804,-0.51215 -0.16537,-0.93412 -0.34712,-1.3885 -0.11571,-0.28927 -0.31613,-0.55781 -0.34713,-0.86781 -0.0461,-0.4613 0.51455,-1.84913 0.69425,-2.08276 0.32522,-0.42277 0.85452,-0.64818 1.21494,-1.04137 0.28191,-0.30753 0.46283,-0.69425 0.69425,-1.04138 0.11571,-0.17356 0.25383,-0.33411 0.34713,-0.52068 0.0259,-0.0517 -0.0445,-0.13657 0,-0.17357 1.36553,-1.13794 2.19586,-0.99701 4.1655,-1.73562 1.01454,-0.38046 4.57914,-1.62858 5.72756,-2.777 0.82804,-0.82804 0.14505,-0.85477 0.34713,-1.56207 0.19606,-0.6862 1.10822,-1.66233 1.3885,-2.08275 0.65863,-0.98794 0.77621,-1.15663 0.86781,-2.25631 0.0288,-0.34593 0.0459,-0.6973 0,-1.04138 -0.0914,-0.68546 -0.60799,-1.9944 -0.34712,-2.777 0.25038,-0.75116 2.10892,-2.97673 2.42987,-3.29769 0.87846,-0.87845 1.86467,-1.08137 2.25632,-2.25631 0.18174,-0.54523 -0.0997,-0.94314 -0.34713,-1.3885 -0.003,-0.006 -1.04037,-1.73363 -1.04137,-1.73563 -0.93784,-1.87567 0.54015,-0.34692 -2.08275,-3.29768 -4.64668,-5.22751 -0.18547,0.89706 -5.03332,-4.85976 -0.15366,-0.18246 -0.13986,-0.4581 -0.17356,-0.69425 -0.0246,-0.17181 -0.11296,-0.38891 0,-0.52068 0.2715,-0.31676 0.6894,-0.47027 1.04137,-0.69425 0.28461,-0.18112 0.68069,-0.24001 0.86782,-0.52069 0.19516,-0.29281 0.24726,-0.69728 0.17356,-1.04138 -0.10842,-0.50598 -0.46284,-0.92566 -0.69425,-1.3885 -0.25018,-0.50036 -1.21494,-2.16333 -1.21494,-2.95056 0,-0.42119 0.30523,-0.79585 0.34713,-1.21494 0.0182,-0.18204 -0.0577,-0.37909 -0.17357,-0.52069 -0.41448,-0.50659 -0.92566,-0.92566 -1.3885,-1.3885 -1.82645,-1.82645 -3.32404,-2.85607 -4.1655,-5.38044 -0.0985,-0.29557 0.2078,-0.58915 0.34712,-0.86781 0.16947,-0.33893 0.86782,-1.28978 0.86782,-1.73563 0,-0.3659 -0.25283,-0.68782 -0.34713,-1.04137 -0.17417,-0.65317 -0.52069,-2.22578 -0.52069,-2.95057 0,-0.23853 0.11567,-0.46283 0.17357,-0.69425 0.0579,-0.23141 0.0534,-0.4882 0.17356,-0.69425 0.23329,-0.39992 1.33293,-1.6262 1.56206,-2.25631 0.43443,-1.19467 0.0646,-0.81172 0,-1.90919 -0.0408,-0.69305 -0.033,-1.38928 0,-2.08275 0.0249,-0.5233 0.0173,-1.06202 0.17357,-1.56206 0.39827,-1.27449 0.61416,-0.88121 1.04137,-1.73563 0.0882,-0.1763 -0.0838,-0.24448 -0.17356,-0.34712 -0.35124,-0.40142 -0.75868,-0.76263 -1.04138,-1.21494 -0.81821,-1.309113 -0.67718,-1.552646 -0.86781,-2.950564 -0.11054,-0.810681 -0.26572,-1.615755 -0.34712,-2.429875 -0.1302,-1.301959 0.0426,-0.730242 0.17356,-1.909189 0.20388,-1.834914 -0.59864,0.928101 0.52069,-2.429877 0.40204,-1.206122 0.45878,-0.725805 0.69425,-2.256314 0.044,-0.285906 0,-0.578541 0,-0.867812 0,-0.752105 0,-1.504209 0,-2.256314 0,-1.151268 -0.0818,0.245454 0.17356,-0.520687 0.0366,-0.10977 0,-0.231417 0,-0.347125 0,-0.115708 0,-0.231418 0,-0.347125 0,-0.115708 0.0281,-0.234871 0,-0.347126 -0.0888,-0.354975 -0.26773,-0.684186 -0.34713,-1.041376 -0.0377,-0.169429 0.034,-0.350494 0,-0.520687 -0.0254,-0.126854 -0.13266,-0.224398 -0.17356,-0.347125 -0.0755,-0.226298 -0.10806,-0.464889 -0.17356,-0.694251 -0.16594,-0.580774 -0.35903,-1.153644 -0.52069,-1.735624 -0.12768,-0.459674 -0.21606,-0.92978 -0.34712,-1.388502 -0.26913,-0.941821 -0.48114,-0.971129 -0.34713,-1.909188 0.0648,-0.453577 0.22448,-0.298527 0.52069,-0.520687 0.13091,-0.09818 0.20076,-0.273945 0.34712,-0.347125 0.21336,-0.106674 0.49578,-0.04125 0.69425,-0.173564 0.17357,-0.115708 0.19963,-0.373187 0.34713,-0.520687 0.0915,-0.09147 0.27532,-0.06592 0.34712,-0.173561 0.0642,-0.09628 -0.0366,-0.237356 0,-0.347126 0.0259,-0.07762 0.13697,-0.100384 0.17357,-0.173564 0.0259,-0.05174 0,-0.115711 0,-0.173561 0,-0.173564 0,-0.347126 0,-0.52069 0,-0.231415 0.0561,-0.469741 0,-0.694248 -0.0627,-0.251007 -0.28433,-0.443243 -0.34713,-0.694251 -0.0561,-0.224506 0,-0.462833 0,-0.69425 0,-0.115708 0,-0.231418 0,-0.347126 0,-0.115707 0,-0.231415 0,-0.347125 0,-0.05785 0.0259,-0.121812 0,-0.173562 -0.0366,-0.07318 -0.15376,-0.09419 -0.17356,-0.173564 -0.0421,-0.16838 0,-0.347125 0,-0.520686 0,-0.347126 -0.0431,-0.696931 0,-1.041376 0.0368,-0.294802 0.34213,-0.357124 0.17356,-0.694251 -0.0259,-0.05175 -0.12396,0.02976 -0.17356,0 -0.24805,-0.148828 -0.45356,-0.360228 -0.69425,-0.520687 -0.11245,-0.07497 -2.18017,-1.340104 -2.42988,-1.562063 -0.2162,-0.19218 -0.35255,-0.458862 -0.52068,-0.694251 -0.37473,-0.52461 -0.61155,-0.900472 -0.69425,-1.562063 -0.0287,-0.229629 0,-0.462833 0,-0.69425 0,-0.754616 -0.034,-0.454295 0.17356,-1.388499 0.0517,-0.23286 0.11566,-0.462836 0.17356,-0.694251 0.0579,-0.231418 0.0982,-0.467953 0.17356,-0.694251 0.0985,-0.295566 0.2244,-0.581448 0.34713,-0.867812 0.051,-0.118907 0.13266,-0.224399 0.17356,-0.347126 0.0183,-0.05488 -0.0409,-0.132654 0,-0.173564 0.55424,-0.554236 0.61582,-0.244729 1.3885,-0.520686 0.5366,-0.191643 1.02657,-0.499526 1.56206,-0.694251 0.10875,-0.03954 0.24364,0.05175 0.34713,0 0.0517,-0.02587 0,-0.115711 0,-0.173561 0,-0.231418 0,-0.462833 0,-0.694251 0,-0.115708 0,-0.231418 0,-0.347126 0,-0.05785 0.0481,-0.141471 0,-0.173561 -0.15222,-0.101484 -0.34993,-0.107894 -0.52069,-0.173564 -0.58157,-0.223681 -1.18422,-0.40404 -1.73563,-0.694251 -0.55377,-0.291457 -1.03666,-0.701413 -1.56206,-1.041373 -0.45823,-0.296506 -0.95186,-0.540338 -1.3885,-0.867815 -0.83559,-0.626695 -0.51663,-0.559014 -1.04137,-1.214938 -0.008,-0.01011 -0.68825,-0.68615 -0.69425,-0.69425 -0.0776,-0.103492 -0.11567,-0.231416 -0.17357,-0.347126 -0.0301,-0.06019 -0.24926,-0.369223 -0.17356,-0.520687 0.36113,-0.722325 -0.012,0.185545 0.34713,-0.173561 0.0915,-0.09148 0.12556,-0.227012 0.17356,-0.347125 0.0679,-0.169866 0.12916,-0.3432 0.17356,-0.520689 0.014,-0.05613 -0.0409,-0.132652 0,-0.173562 0.0409,-0.04091 0.12187,0.02587 0.17357,0 0.0732,-0.03659 0.11566,-0.115713 0.17356,-0.173563 0.1157,-0.115708 0.25632,-0.210971 0.34712,-0.347125 0.0881,-0.132155 -0.17156,-0.503678 -0.17356,-0.520688 -0.0409,-0.286363 0,-0.578542 0,-0.867812 0,-0.115709 0,-0.231417 0,-0.347126 0,-0.173562 -0.0285,-0.349486 0,-0.520687 0.0641,-0.384324 0.47915,-0.895504 0,-1.214939 -0.24613,-0.164085 -1.14134,-0.483897 -1.21494,-0.520687 -0.39609,-0.198045 -0.47814,-0.390797 -0.86781,-0.520688 -0.0549,-0.0183 -0.11566,0 -0.17356,0 -0.0579,0 -0.11567,0 -0.17357,0 -0.17356,0 -0.34846,0.02153 -0.52068,0 -0.29273,-0.03659 -0.57357,-0.152542 -0.86782,-0.173562 -0.51936,-0.0371 -1.04137,0 -1.56206,0 -0.46283,0 -0.92567,0 -1.3885,0 -1.85134,0 -3.70267,0 -5.554,0 -0.52069,0 -1.04138,0 -1.56207,0 -0.28927,0 -0.57997,0.02878 -0.86781,0 -0.29354,-0.02935 -0.57462,-0.140983 -0.86781,-0.173563 -0.23,-0.02556 -0.46283,0 -0.69425,0 -0.23142,0 -0.46284,0 -0.69425,0 -0.86782,0 -1.73563,0 -2.60344,0 -0.80996,0 -1.61992,0 -2.42988,0 -0.23141,0 -0.46283,0 -0.69425,0 -0.28927,0 -0.57973,-0.02619 -0.86781,0 -0.35047,0.03186 -0.69068,0.144333 -1.04138,0.173563 -0.34592,0.02883 -0.69513,-0.02473 -1.04137,0 -3.33404,0.238142 0.673,0.173562 -2.95056,0.173562 -0.52309,0.02906 -1.03919,0.140883 -1.56207,0.173563 -0.40419,0.02526 -0.80996,0 -1.21493,0 -0.75211,0 -1.50421,0 -2.25632,0 -0.6364,0 -1.2754,-0.05762 -1.90919,0 -0.64417,0.05856 -1.26779,0.263465 -1.90919,0.347125 -2.45519,0.320243 -1.79316,0.08264 -4.33906,0.173562 -7.918811,0.282815 2.96241,0.01506 -5.38044,0.520688 -0.98172,0.0595 -1.967043,0 -2.950563,0 -0.983522,0 -1.967044,0 -2.950564,0 -2.429875,0 -4.859753,0 -7.289628,0 -8.635836,0 -0.460264,0.102056 -6.248252,-0.173563 -0.462312,-0.02201 -0.925668,0 -1.388501,0 -0.347126,0 -0.69545,0.02883 -1.041377,0 -0.350697,-0.02922 -0.690676,-0.144342 -1.041376,-0.173562 -0.345924,-0.02883 -0.694248,0 -1.041373,0 -0.867812,0 -1.735627,0 -2.603439,0 -2.487732,0 -4.975461,0 -7.463192,0 -0.98352,0 -1.96786,0.04011 -2.950562,0 -1.853404,-0.07565 -3.702783,-0.229587 -5.554004,-0.347125 -1.184873,-0.07523 -9.827651,-0.63891 -10.93444,-0.69425 -12.477113,-0.623856 1.560533,0.13144 -8.504566,-0.173563 -0.696338,-0.0211 -1.388501,-0.115712 -2.082752,-0.173562 z"
       transform="translate(5.291667,12.170835)" />
    <path
       style="fill:none;fill-rule:evenodd;stroke:#000000;stroke-width:7.9375;stroke-linecap:butt;stroke-linejoin:miter;stroke-dasharray:none;stroke-opacity:1"
       d="m 85.356716,136.693 36.910484,-1.21493 -17.13967,-10.9729 15.66425,-8.71656 -35.84054,-2.60344 v 24.37565 24.7693"
       id="path19"
       inkscape:original-d="m 85.356716,136.693 c 0.429525,-106.08331 24.115054,-5.18821 36.910484,-1.21493 l -17.13967,-10.9729 15.66425,-8.71656 -35.84054,-2.60344 v 24.37565 24.7693"
       inkscape:path-effect="#path-effect19"
       sodipodi:nodetypes="ccccccc"
       transform="translate(8.6781287,-13.017193)" />
    <path
       style="fill:none;fill-rule:evenodd;stroke:#000000;stroke-width:7.9375;stroke-linecap:butt;stroke-linejoin:miter;stroke-dasharray:none;stroke-opacity:1"
       d="m 75.578863,134.95738 c -1.189526,1.6904 -1.908649,3.70825 -2.056306,5.76996 -0.147656,2.0617 0.276572,4.16143 1.213066,6.0041 0.936493,1.84267 2.3826,3.42305 4.13509,4.51905 1.752489,1.096 3.806401,1.70452 5.873083,1.74003 2.066683,0.0355 4.140286,-0.50209 5.929393,-1.53724 1.789106,-1.03515 3.288651,-2.56492 4.287893,-4.37433 0.999243,-1.80941 1.495353,-3.89333 1.418611,-5.95889 -0.07674,-2.06556 -0.726122,-4.10692 -1.856875,-5.83719 -0.585582,-0.89605 -1.297608,-1.70934 -2.108386,-2.40824"
       id="path23"
       inkscape:path-effect="#path-effect24"
       inkscape:original-d="m 75.578863,134.95738 c 6.363959,0.34713 12.579995,0.32549 18.943955,0.32549 6.363962,0 -1.356281,-1.59828 -2.108386,-2.40824"
       transform="matrix(1.0724132,0,0,0.5562693,2.8744425,70.23291)" />
  </g>
</svg>
