<?xml version="1.0" encoding="UTF-8" standalone="no"?>
<!-- Created with Inkscape (http://www.inkscape.org/) -->

<svg
   width="100"
   height="100"
   viewBox="0 0 100 100"
   version="1.1"
   id="svg1"
   xmlns="http://www.w3.org/2000/svg"
   xmlns:svg="http://www.w3.org/2000/svg">
  <defs
     id="defs1" />
  <g
     id="layer1">
    <path
       style="fill:none;fill-rule:evenodd;stroke:#ffffff;stroke-width:2.791;stroke-linecap:butt;stroke-linejoin:miter;stroke-dasharray:none;stroke-opacity:1"
       d="m 161.33665,1.9705332 c 6.73018,7.0084272 10.73775,16.5670718 11.01805,26.2796838 0.28029,9.712612 -3.16936,19.486466 -9.48416,26.871359 -1.49234,1.745224 -3.15217,3.372478 -5.09206,4.601179 -1.93989,1.228701 -4.17947,2.046579 -6.47543,2.084213 -2.29597,0.03763 -4.64362,-0.754834 -6.27396,-2.371885 -0.81517,-0.808526 -1.44177,-1.811675 -1.77788,-2.909515 -0.3361,-1.097839 -0.37735,-2.289114 -0.0848,-3.399344 0.36248,-1.37543 1.23138,-2.596329 2.35804,-3.46457 1.12665,-0.868241 2.50031,-1.392114 3.90902,-1.588908 2.81743,-0.393588 5.67654,0.496188 8.19923,1.811033 5.41339,2.821498 9.68084,7.62749 12.27452,13.153655 2.59368,5.526166 3.56694,11.73815 3.26792,17.835384 -0.59805,12.194468 -6.08968,23.597642 -12.29999,34.109292 -2.3148,3.91806 -4.77401,7.83513 -5.98605,12.22153 -1.14471,4.14275 -1.11141,8.6041 0.095,12.7293 1.20644,4.1252 3.58227,7.90146 6.77881,10.77459"
       id="path1-9-5"
       transform="matrix(0.1513627,0,0,0.16994282,70.597497,-0.56027631)" />
    <path
       style="fill:none;fill-rule:evenodd;stroke:#ffffff;stroke-width:2.791;stroke-linecap:butt;stroke-linejoin:miter;stroke-dasharray:none;stroke-opacity:1"
       d="m 161.33665,1.9705332 c 6.73018,7.0084272 10.73775,16.5670718 11.01805,26.2796838 0.28029,9.712612 -3.16936,19.486466 -9.48416,26.871359 -1.49234,1.745224 -3.15217,3.372478 -5.09206,4.601179 -1.93989,1.228701 -4.17947,2.046579 -6.47543,2.084213 -2.29597,0.03763 -4.64362,-0.754834 -6.27396,-2.371885 -0.81517,-0.808526 -1.44177,-1.811675 -1.77788,-2.909515 -0.3361,-1.097839 -0.37735,-2.289114 -0.0848,-3.399344 0.36248,-1.37543 1.23138,-2.596329 2.35804,-3.46457 1.12665,-0.868241 2.50031,-1.392114 3.90902,-1.588908 2.81743,-0.393588 5.67654,0.496188 8.19923,1.811033 5.41339,2.821498 9.68084,7.62749 12.27452,13.153655 2.59368,5.526166 3.56694,11.73815 3.26792,17.835384 -0.59805,12.194468 -6.08968,23.597642 -12.29999,34.109292 -2.3148,3.91806 -4.77401,7.83513 -5.98605,12.22153 -1.14471,4.14275 -1.11141,8.6041 0.095,12.7293 1.20644,4.1252 3.58227,7.90146 6.77881,10.77459"
       id="path1-9-5-1"
       transform="matrix(0.1513627,0,0,0.16994282,70.637894,24.728953)" />
    <path
       style="fill:none;fill-rule:evenodd;stroke:#ffffff;stroke-width:2.791;stroke-linecap:butt;stroke-linejoin:miter;stroke-dasharray:none;stroke-opacity:1"
       d="m 161.33665,1.9705332 c 6.73018,7.0084272 10.73775,16.5670718 11.01805,26.2796838 0.28029,9.712612 -3.16936,19.486466 -9.48416,26.871359 -1.49234,1.745224 -3.15217,3.372478 -5.09206,4.601179 -1.93989,1.228701 -4.17947,2.046579 -6.47543,2.084213 -2.29597,0.03763 -4.64362,-0.754834 -6.27396,-2.371885 -0.81517,-0.808526 -1.44177,-1.811675 -1.77788,-2.909515 -0.3361,-1.097839 -0.37735,-2.289114 -0.0848,-3.399344 0.36248,-1.37543 1.23138,-2.596329 2.35804,-3.46457 1.12665,-0.868241 2.50031,-1.392114 3.90902,-1.588908 2.81743,-0.393588 5.67654,0.496188 8.19923,1.811033 5.41339,2.821498 9.68084,7.62749 12.27452,13.153655 2.59368,5.526166 3.56694,11.73815 3.26792,17.835384 -0.59805,12.194468 -6.08968,23.597642 -12.29999,34.109292 -2.3148,3.91806 -4.77401,7.83513 -5.98605,12.22153 -1.14471,4.14275 -1.11141,8.6041 0.095,12.7293 1.20644,4.1252 3.58227,7.90146 6.77881,10.77459"
       id="path1-9-5-17"
       transform="matrix(0.1513627,0,0,0.16994282,70.621847,49.852245)" />
    <path
       style="fill:none;fill-rule:evenodd;stroke:#ffffff;stroke-width:2.791;stroke-linecap:butt;stroke-linejoin:miter;stroke-dasharray:none;stroke-opacity:1"
       d="m 161.33665,1.9705332 c 6.73018,7.0084272 10.73775,16.5670718 11.01805,26.2796838 0.28029,9.712612 -3.16936,19.486466 -9.48416,26.871359 -1.49234,1.745224 -3.15217,3.372478 -5.09206,4.601179 -1.93989,1.228701 -4.17947,2.046579 -6.47543,2.084213 -2.29597,0.03763 -4.64362,-0.754834 -6.27396,-2.371885 -0.81517,-0.808526 -1.44177,-1.811675 -1.77788,-2.909515 -0.3361,-1.097839 -0.37735,-2.289114 -0.0848,-3.399344 0.36248,-1.37543 1.23138,-2.596329 2.35804,-3.46457 1.12665,-0.868241 2.50031,-1.392114 3.90902,-1.588908 2.81743,-0.393588 5.67654,0.496188 8.19923,1.811033 5.41339,2.821498 9.68084,7.62749 12.27452,13.153655 2.59368,5.526166 3.56694,11.73815 3.26792,17.835384 -0.59805,12.194468 -6.08968,23.597642 -12.29999,34.109292 -2.3148,3.91806 -4.77401,7.83513 -5.98605,12.22153 -1.14471,4.14275 -1.11141,8.6041 0.095,12.7293 1.20644,4.1252 3.58227,7.90146 6.77881,10.77459"
       id="path1-9-5-1-7"
       transform="matrix(0.1513627,0,0,0.16994282,70.662244,75.141474)" />
  </g>
</svg>
