<?xml version="1.0" encoding="UTF-8" standalone="no"?>
<!-- Created with Inkscape (http://www.inkscape.org/) -->

<svg
   width="142.17557mm"
   height="163.44322mm"
   viewBox="0 0 142.17557 163.44322"
   version="1.1"
   id="svg1"
   inkscape:version="1.3.2 (091e20ef0f, 2023-11-25, custom)"
   sodipodi:docname="world.svg"
   xmlns:inkscape="http://www.inkscape.org/namespaces/inkscape"
   xmlns:sodipodi="http://sodipodi.sourceforge.net/DTD/sodipodi-0.dtd"
   xmlns="http://www.w3.org/2000/svg"
   xmlns:svg="http://www.w3.org/2000/svg">
  <sodipodi:namedview
     id="namedview1"
     pagecolor="#ffffff"
     bordercolor="#666666"
     borderopacity="1.0"
     inkscape:showpageshadow="2"
     inkscape:pageopacity="0.0"
     inkscape:pagecheckerboard="0"
     inkscape:deskcolor="#d1d1d1"
     inkscape:document-units="mm"
     showguides="true"
     inkscape:zoom="1.5244262"
     inkscape:cx="163.99613"
     inkscape:cy="309.6247"
     inkscape:window-width="2560"
     inkscape:window-height="1403"
     inkscape:window-x="1080"
     inkscape:window-y="351"
     inkscape:window-maximized="1"
     inkscape:current-layer="layer1">
    <sodipodi:guide
       position="39.899256,32.159091"
       orientation="0,-1"
       id="guide1"
       inkscape:locked="false" />
    <sodipodi:guide
       position="21.490162,198.33183"
       orientation="0,-1"
       id="guide7"
       inkscape:locked="false" />
    <sodipodi:guide
       position="67.990146,89.126391"
       orientation="0,-1"
       id="guide8"
       inkscape:locked="false" />
  </sodipodi:namedview>
  <defs
     id="defs1">
    <inkscape:path-effect
       effect="spiro"
       id="path-effect3"
       is_visible="true"
       lpeversion="1" />
    <inkscape:path-effect
       effect="spiro"
       id="path-effect28"
       is_visible="true"
       lpeversion="1" />
    <inkscape:path-effect
       effect="spiro"
       id="path-effect27"
       is_visible="true"
       lpeversion="1" />
    <inkscape:path-effect
       effect="spiro"
       id="path-effect26"
       is_visible="true"
       lpeversion="1" />
    <inkscape:path-effect
       effect="spiro"
       id="path-effect20"
       is_visible="true"
       lpeversion="1" />
    <inkscape:path-effect
       effect="spiro"
       id="path-effect2"
       is_visible="true"
       lpeversion="1" />
  </defs>
  <g
     inkscape:label="Layer 1"
     inkscape:groupmode="layer"
     id="layer1"
     transform="translate(-32.755292,-52.27707)">
    <circle
       style="fill:none;stroke:#000000;stroke-width:7.9375;stroke-miterlimit:0;paint-order:fill markers stroke"
       id="path1"
       cx="103.75933"
       cy="131.94229"
       r="66.127335" />
    <path
       style="fill:none;fill-rule:evenodd;stroke:#000000;stroke-width:7.9375;stroke-linecap:butt;stroke-linejoin:miter;stroke-dasharray:none;stroke-opacity:1"
       d="m 109.33711,94.495251 5.63989,1.718183 2.70556,-7.848983 6.87273,-0.251019 7.85478,4.848835 10.04433,4.012994 4.68271,8.810899 8.59091,5.89091 3.68738,5.4 -6.17664,1.94649 4.20744,7.13533 -2.17881,6.73459 -7.39392,0.13813 0.49091,3.19091 0.73636,4.90909 c -1.61255,3.02433 -2.85215,6.24729 -3.68181,9.57273 -0.48392,1.93963 -0.82848,3.91166 -1.11426,5.89022 -0.31196,2.15986 -0.55435,4.32978 -0.72665,6.50524 l -6.99546,6.25909 -4.90909,2.7 -2.45454,8.09999 -7.88432,-7.85087 c 0.23765,-2.86653 0.93511,-5.69444 2.0576,-8.34274 1.49542,-3.52817 3.74883,-6.73284 6.56308,-9.33366 l 3.43636,-8.83079 -1.47272,-6.38739 3.68738,-5.64545 -6.38738,-1.22728 -6.29434,-6.3169 -3.27839,-4.72855 -6.87273,-4.90909 1.52324,-5.36182 -4.22324,-7.15636 c 0.75097,-0.64081 1.27196,-1.54571 1.44909,-2.5169 0.17713,-0.97119 0.009,-2.001754 -0.46727,-2.866412 -0.68598,-1.24503 -2.01967,-2.108886 -3.43636,-2.22578 z"
       id="path2"
       inkscape:path-effect="#path-effect2"
       inkscape:original-d="m 109.33711,94.495251 c 1.2696,-0.0122 3.59103,1.973956 5.63989,1.718183 2.54737,-1.416323 1.9492,-5.372089 2.70556,-7.848983 0.9181,-1.856822 4.6532,1.71284 6.87273,-0.251019 4.17211,-1.768912 5.41827,4.062208 7.85478,4.848835 3.89487,-0.964196 7.86587,0.724147 10.04433,4.012994 2.79953,2.382284 2.34982,6.150519 4.68271,8.810899 3.23674,0.74205 5.6881,3.5633 8.59091,5.89091 0.24791,2.2982 2.90941,4.4925 3.68738,5.4 -2.21532,0.0231 -5.0912,-0.30956 -6.17664,1.94649 -1.30861,3.31684 0.73456,7.10351 4.20744,7.13533 4.18897,2.17994 1.83525,6.62011 -2.17881,6.73459 -2.44328,0.27623 -4.9359,0.0777 -7.39392,0.13813 -3.15702,0.63213 -2.73353,3.95828 0.49091,3.19091 1.22665,1.33208 0.57112,3.26038 0.73636,4.90909 1.55937,3.01265 -1.66373,7.13667 -3.68181,9.57273 -1.48947,1.6564 -0.73089,3.80355 -1.11426,5.89022 -0.42591,2.0389 1.13218,4.95466 -0.72665,6.50524 -1.52713,3.12785 -4.19539,3.65468 -6.99546,6.25909 -2.45957,-0.40982 -4.48185,0.26245 -4.90909,2.7 -0.95296,2.295 -1.92685,6.72604 -2.45454,8.09999 -3.53624,-1.51652 -6.63768,-4.43959 -7.88432,-7.85087 0.16706,-2.86185 -1.91223,-7.40412 2.0576,-8.34274 4.47848,-0.94486 6.34367,-5.18853 6.56308,-9.33366 0.51497,-3.2211 3.90566,-5.44977 3.43636,-8.83079 0.41914,-2.33877 -1.24242,-4.28722 -1.47272,-6.38739 1.87264,-1.83554 7.94421,-3.16692 3.68738,-5.64545 -2.18909,-0.23585 -5.1263,0.21493 -6.38738,-1.22728 -1.02995,-3.54558 -4.10884,-4.07844 -6.29434,-6.3169 -2.22698,-1.30166 -0.73968,-4.09182 -3.27839,-4.72855 -1.92142,-2.44823 -5.2238,-2.71925 -6.87273,-4.90909 2.46717,-1.31036 4.24211,-2.85555 1.52324,-5.36182 -2.63483,-1.02672 -2.94483,-4.80204 -4.22324,-7.15636 -1.18668,-1.33979 0.84072,-3.68344 0.98182,-5.383312 0.2407,-2.234879 -1.63042,-2.458396 -3.43636,-2.22578 0.57273,-0.654546 1.14545,-1.309091 1.71818,-1.963637 z" />
    <path
       style="fill:none;fill-rule:evenodd;stroke:#000000;stroke-width:7.9375;stroke-linecap:butt;stroke-linejoin:miter;stroke-dasharray:none;stroke-opacity:1"
       d="m 97.064382,68.47707 c 0.193331,0.615152 0.47054,1.203881 0.821549,1.744789 0.367281,0.565983 0.815336,1.079464 1.326351,1.520027 l -0.202094,0.938763 2.696102,0.732637 0.8606,0.512598 2.62641,-0.867787 1.51745,-1.144664 2.27776,0.08583 1.66916,0.405078 h 3.09762 l 2.04711,-0.490909 h 1.88016 l 0.0309,-1.848197 -1.01269,-2.034903 v -0.04417"
       id="path25"
       inkscape:path-effect="#path-effect26"
       inkscape:original-d="m 97.064382,68.47707 c 0.86038,-0.320821 1.858075,0.688889 0.821549,1.744789 -0.676483,0.679955 1.517853,0.992981 1.326351,1.520027 0.357369,0.43213 -0.202094,0.938763 -0.202094,0.938763 0.965154,0.235201 1.984122,0.03494 2.696102,0.732637 0.63958,-0.229015 0.79438,0.04964 0.8606,0.512598 0.98454,0.118047 1.7475,-0.545868 2.62641,-0.867787 0.55408,-0.466975 0.54149,-1.512971 1.51745,-1.144664 0.75838,0.0724 1.56693,-0.214389 2.27776,0.08583 0.29661,0.706403 1.08876,0.311477 1.66916,0.405078 1.03271,-0.01103 2.06976,0.01744 3.09762,0 0.62918,-0.403458 1.30233,-0.574457 2.04711,-0.490909 0.62566,-0.01801 1.27746,0.02682 1.88016,0 0.0438,-0.591369 -0.0507,-1.236425 0.0309,-1.848197 -0.46962,-0.650957 -1.31054,-1.078549 -1.01269,-2.034903 v -0.04417"
       sodipodi:nodetypes="cccccccccccccccc" />
    <path
       style="fill:none;fill-rule:evenodd;stroke:#000000;stroke-width:7.9375;stroke-linecap:butt;stroke-linejoin:miter;stroke-dasharray:none;stroke-opacity:1"
       d="m 74.930997,155.5468 1.480435,-0.15175 0.255192,-0.0218 0.41876,0.86111 0.146673,0.9457 -1.441583,1.22186 -1.206603,0.44258 -1.733623,0.25186 -2.171157,-0.25789 -0.249232,-0.2523 0.248855,-0.95661 c 0.261151,-0.48296 0.599385,-0.92414 0.997986,-1.30172 0.248532,-0.23543 0.521731,-0.44709 0.824176,-0.60747 0.448459,-0.2378 0.95835,-0.35855 1.465829,-0.34712 l 0.964292,0.17356 z"
       id="path28"
       inkscape:path-effect="#path-effect28"
       inkscape:original-d="m 74.930997,155.5468 c 0.477807,-0.16591 0.980116,-0.21311 1.480435,-0.15175 0.06885,-0.1185 0.27365,-0.37312 0.255192,-0.0218 0.454692,0.18199 1.021452,0.40288 0.41876,0.86111 -0.130538,0.3267 -0.175572,0.94303 0.146673,0.9457 -0.355278,0.51876 -0.907247,0.94985 -1.441583,1.22186 0.132892,0.57432 -0.877392,0.19002 -1.206603,0.44258 -0.557996,0.13543 -1.172206,0.55076 -1.733623,0.25186 -0.695814,-0.15454 -1.45999,-0.0534 -2.171157,-0.25789 -0.373475,0.0359 -0.512153,0.0624 -0.249232,-0.2523 0.01179,-0.29938 0.122743,-0.80597 0.248855,-0.95661 0.189274,-0.35758 0.834101,-0.77284 0.997986,-1.30172 0.12103,-0.44856 0.352093,-0.72542 0.824176,-0.60747 0.548312,0.15064 0.947586,-0.36439 1.465829,-0.34712 0.338181,-0.0225 0.651672,0.0263 0.964292,0.17356 z"
       transform="translate(-5.5540023,0.34712515)" />
    <path
       style="fill:none;fill-rule:evenodd;stroke:#000000;stroke-width:7.9375;stroke-linecap:butt;stroke-linejoin:miter;stroke-dasharray:none;stroke-opacity:1"
       d="m 39.311822,142.60996 c 2.529477,-1.35692 4.524431,-3.68098 5.482414,-6.38685 0.643226,-1.81683 0.826031,-3.75849 1.215601,-5.64604 0.438814,-2.12614 1.144995,-4.19696 2.09664,-6.14822 l -0.532475,-3.16222 c -0.07173,-1.1609 0.36784,-2.34427 1.18006,-3.17682 0.812219,-0.83254 1.984367,-1.30123 3.146684,-1.2582 0.865567,0.032 1.707392,0.33522 2.44767,0.78491 0.740277,0.44969 1.384983,1.04223 1.969991,1.68098 2.212941,2.41623 3.613773,5.56363 3.927794,8.82502 l 7.843503,1.82814 4.18377,-3.54632 3.506934,0.83905 6.861895,-7.89638 -2.26883,-4.96994 1.963637,-4.17273 -4.953005,-3.79347 2.153836,-3.07926 5.00826,-4.909085 -3.454337,-4.707029 4.190699,-5.111153 C 81.89011,87.838345 78.77014,85.914731 76.562076,83.227736 75.471206,81.900255 74.599149,80.39338 73.991654,78.786161 l -1.963637,-3.436364 -1.840909,0.490909"
       id="path3"
       sodipodi:nodetypes="ccccccccccccccccccccccc"
       inkscape:original-d="m 39.311822,142.60996 c -0.98807,-2.67013 7.515267,-4.26587 5.482414,-6.38685 -2.475968,-2.64414 -0.813436,-4.74335 1.215601,-5.64604 2.323465,-1.00475 4.259974,-4.16955 2.09664,-6.14822 -1.785554,-0.84973 -4.017783,-3.06795 -0.532475,-3.16222 3.335306,0.74403 5.681148,-1.45667 4.326744,-4.43502 -1.167455,-2.99658 3.315453,1.92053 4.417661,2.46589 3.480515,1.82295 2.315473,6.15915 3.927794,8.82502 2.143147,1.58057 5.330979,4.9665 7.843503,1.82814 1.739268,-0.51594 3.738545,-4.63517 4.18377,-3.54632 0.542616,2.42993 2.44523,3.55919 3.506934,0.83905 1.798882,-3.2394 6.170753,-4.87481 6.861895,-7.89638 1.690346,-2.01704 0.623499,-5.56131 -2.26883,-4.96994 -4.559995,-0.12359 1.505637,-2.2039 1.963637,-4.17273 -1.043172,-0.72551 -3.145373,-2.16878 -4.953005,-3.79347 -1.725653,-0.64595 0.500829,-2.84575 2.153836,-3.07926 1.481013,-0.68288 4.878823,-2.37528 5.00826,-4.909085 0.463205,-2.333394 -4.777051,-2.077121 -3.454337,-4.707029 3.323875,1.158711 6.541766,-1.953775 4.190699,-5.111153 -1.789145,-3.314548 -5.028597,-5.301152 -8.720487,-5.376607 -2.561673,-0.184276 -2.746302,-2.465277 -2.570422,-4.441575 0.367864,-1.982479 -0.587215,-2.742419 -1.963637,-3.436364 l -1.840909,0.490909"
       inkscape:path-effect="#path-effect3" />
  </g>
</svg>
