<?xml version="1.0" encoding="UTF-8" standalone="no"?>
<!-- Created with Inkscape (http://www.inkscape.org/) -->

<svg
   width="100"
   height="100"
   viewBox="0 0 100 100"
   version="1.1"
   id="svg1"
   xmlns="http://www.w3.org/2000/svg"
   xmlns:svg="http://www.w3.org/2000/svg">
  <defs
     id="defs1" />
  <g
     id="layer1">
    <path
       style="display:inline;fill:none;fill-rule:evenodd;stroke:#5e5e5e;stroke-width:1px;stroke-linecap:square;stroke-linejoin:miter;stroke-dasharray:none;stroke-dashoffset:0;stroke-opacity:1;paint-order:markers fill stroke"
       d="m 90,10 h -5 v 10 h 5 v 10 h -5 v 10 h 5 v 10 h -5 v 10 h 5 v 10 h -5 v 10 h 5 v 10 h -5 v 10 h 5 v 10 h -5"
       id="path1"
       transform="matrix(0.6,0,0,0.6,42.3,-5.7)" />
    <path
       style="display:inline;fill:none;fill-rule:evenodd;stroke:#5e5e5e;stroke-width:1px;stroke-linecap:square;stroke-linejoin:miter;stroke-dasharray:none;stroke-dashoffset:0;stroke-opacity:1;paint-order:markers fill stroke"
       d="m 90,10 h -5 v 10 h 5 v 10 h -5 v 10 h 5 v 10 h -5 v 10 h 5 v 10 h -5 v 10 h 5 v 10 h -5 v 10 h 5 v 10 h -5"
       id="path1-6"
       transform="matrix(0.6,0,0,0.6,42.3,54.3)" />
  </g>
</svg>
